<svg width="500" height="500" version="1.1" xmlns="http://www.w3.org/2000/svg" desc="Created with imagetracer.js version 1.2.6" ><path fill="rgb(0,0,0)" stroke="rgb(0,0,0)" stroke-width="1" opacity="0" d="M 0 0 L 500 0 L 500 500 L 0 500 L 0 0 Z M 182 126 L 182 290 L 204 308 Q 203 310 206 309 L 206 311 L 208 311 L 220 326 L 230 341 L 245 371 Q 244 373 247 372 L 247 370 L 247 192 L 243 176 L 235 162 Q 215 137 182 126 Z M 318 126 Q 297 134 282 146 Q 270 155 262 168 L 256 182 L 255 193 L 254 194 L 254 368 L 255 369 Q 254 371 257 370 Q 267 342 285 322 L 287 319 Q 300 302 318 291 L 319 290 L 319 152 L 320 151 L 320 135 L 319 132 Q 320 125 318 126 Z M 125 152 L 122 156 L 123 159 L 123 319 L 125 320 L 143 321 L 158 324 L 184 333 L 213 349 L 236 368 L 239 369 L 239 367 L 233 356 L 215 333 Q 197 314 175 300 L 172 298 L 172 230 L 171 229 L 171 212 L 172 211 L 172 162 L 168 158 L 151 154 L 125 152 Z M 371 152 L 370 153 L 351 154 L 332 159 L 330 161 L 330 297 L 329 299 Q 308 310 292 327 L 271 352 L 263 368 L 263 369 L 266 368 L 289 349 L 316 334 L 337 326 L 349 323 L 368 321 L 369 320 L 377 320 L 378 319 L 378 157 L 379 156 L 378 153 Q 376 151 371 152 Z M 110 202 L 89 209 L 88 212 L 88 360 L 90 361 L 105 356 L 110 356 L 127 352 L 136 352 L 137 351 L 169 351 L 170 352 L 178 352 L 203 357 L 223 364 L 225 364 Q 208 349 186 341 L 163 334 L 145 332 L 144 331 L 114 331 L 113 331 L 113 204 L 110 202 Z M 390 202 L 388 204 L 388 331 L 358 331 L 331 336 Q 300 344 279 361 L 276 365 L 307 355 L 324 352 L 332 352 L 333 351 L 366 351 L 375 353 L 382 353 L 404 358 L 411 361 L 413 360 L 413 212 L 412 209 L 390 202 Z " /><path fill="rgb(22,85,130)" stroke="rgb(22,85,130)" stroke-width="1" opacity="0.996078431372549" d="M 315.5 131 L 317 133.5 L 315.5 139 L 313 134.5 L 315 134 L 315.5 131 Z " /><path fill="rgb(22,85,130)" stroke="rgb(22,85,130)" stroke-width="1" opacity="0.996078431372549" d="M 185.5 132 L 186 133.5 L 185.5 135 Q 190.1 133.8 188 139 Q 183.5 140.8 185 135.5 L 185 133.5 L 185.5 132 Z " /><path fill="rgb(22,85,130)" stroke="rgb(22,85,130)" stroke-width="1" opacity="0.996078431372549" d="M 308.5 133 L 311 134.5 L 309.5 134 L 308.5 133 Z " /><path fill="rgb(22,85,130)" stroke="rgb(22,85,130)" stroke-width="1" opacity="0.996078431372549" d="M 192 134 L 195 134.5 L 195 136.5 Q 195.8 138.8 193.5 138 L 191.5 141 L 189 137.5 L 192 136 L 192 134 Z " /><path fill="rgb(22,85,130)" stroke="rgb(22,85,130)" stroke-width="1" opacity="0.996078431372549" d="M 306.5 134 L 310 136.5 L 308 139.5 L 310 144.5 L 310.5 289 L 313 288 L 313.5 280 L 314 288 L 316 288.5 L 310.5 290 L 308.5 289 L 305 291.5 L 304.5 293 L 304 291.5 L 308 288.5 L 306 286.5 L 306 142.5 Q 308.5 141 307 135.5 L 306.5 134 Z " /><path fill="rgb(22,85,130)" stroke="rgb(22,85,130)" stroke-width="1" opacity="0.996078431372549" d="M 302.5 137 L 304 140.5 L 302.5 140 Q 299.9 139.2 301 142.5 L 296 145 Q 297.1 142.3 294.5 143 L 292.5 144 L 292.5 143 L 296 141.5 L 295.5 140 L 299.5 142 L 299.5 141 L 298 140.5 L 302.5 137 Z " /><path fill="rgb(22,85,130)" stroke="rgb(22,85,130)" stroke-width="1" opacity="0.996078431372549" d="M 201.5 138 L 203 138.5 L 200.5 140 L 201.5 138 Z " /><path fill="rgb(22,85,130)" stroke="rgb(22,85,130)" stroke-width="1" opacity="0.996078431372549" d="M 204.5 140 L 207 140.5 L 206 142.5 L 206.5 144 L 204.5 144 L 201.5 143 L 197 144 L 197 141 L 203 141 L 203.5 143 L 204.5 140 Z " /><path fill="rgb(22,85,130)" stroke="rgb(22,85,130)" stroke-width="1" opacity="0.996078431372549" d="M 315.5 144 L 316 154.5 L 315 154.5 L 315.5 144 Z " /><path fill="rgb(22,85,130)" stroke="rgb(22,85,130)" stroke-width="1" opacity="0.996078431372549" d="M 285.5 145 L 288 145.5 L 287.5 148 L 285.5 145 Z " /><path fill="rgb(22,85,130)" stroke="rgb(22,85,130)" stroke-width="1" opacity="0.996078431372549" d="M 209.5 148 L 216.5 150 L 218 149.5 L 217.5 151 L 219 151.5 L 219 153.5 L 217.5 157 L 212 154.5 Q 210.8 150.8 214.5 152 L 214.5 151 Q 209 151.7 209.5 148 Z " /><path fill="rgb(22,85,130)" stroke="rgb(22,85,130)" stroke-width="1" opacity="0.996078431372549" d="M 286.5 149 Q 289.5 150.5 286.5 152 Q 283.9 151.2 285 154.5 L 282.5 158 L 278.5 160 L 277.5 158 L 281 157.5 L 278 156.5 Q 281.1 154.8 279.5 153 L 281.5 153 L 284 152.5 L 283 150.5 L 284 150.5 L 284.5 152 L 287 150.5 L 286.5 149 Z " /><path fill="rgb(22,85,130)" stroke="rgb(22,85,130)" stroke-width="1" opacity="0.996078431372549" d="M 313.5 155 L 316 156 L 315.5 287 L 315 192.5 L 314 191.5 L 314 176.5 L 315 175.5 L 315 160.5 L 313.5 158 L 315 158.5 L 313.5 155 Z " /><path fill="rgb(22,85,130)" stroke="rgb(22,85,130)" stroke-width="1" opacity="0.996078431372549" d="M 273.5 156 L 276 159.5 L 274 158.5 L 273.5 156 Z " /><path fill="rgb(22,85,130)" stroke="rgb(22,85,130)" stroke-width="1" opacity="0.996078431372549" d="M 224.5 157 L 225 159 L 227 159.5 L 224.5 161 L 224 158.5 L 224.5 157 Z " /><path fill="rgb(22,85,130)" stroke="rgb(22,85,130)" stroke-width="1" opacity="0.996078431372549" d="M 227.5 164 Q 231.8 163.3 232.5 166 L 234 165.5 Q 234.8 167.8 232.5 167 L 232.5 168 Q 235.1 167.2 234 170.5 L 232.5 173 L 230.5 172 L 228 173 Q 229.6 177.9 224 176 Q 222.5 171.5 227 173 L 227 167.5 L 228 165.5 L 227.5 164 Z " /><path fill="rgb(22,85,130)" stroke="rgb(22,85,130)" stroke-width="1" opacity="0.996078431372549" d="M 269.5 166 L 272 167 L 270.5 171 Q 268.3 170.3 269 172.5 Q 264.8 174.8 269.5 177 L 271 177.5 L 266 179.5 L 264.5 182 L 263 182.5 L 264 185.5 L 262 188.5 L 264 189 Q 265 192 262 191 L 261 185.5 L 261 183.5 L 261.5 181 L 263 181.5 L 262 179.5 L 264 179 L 263.5 177 Q 262.3 179.3 261 176.5 L 263.5 176 Q 265.8 176.8 265 174.5 L 267.5 171 Q 269.8 171.8 269 169.5 L 270 167.5 L 269.5 166 Z " /><path fill="rgb(22,85,130)" stroke="rgb(22,85,130)" stroke-width="1" opacity="0.996078431372549" d="M 240.5 183 L 242 185.5 L 240 186.5 L 240 184.5 L 240.5 183 Z " /><path fill="rgb(22,85,130)" stroke="rgb(22,85,130)" stroke-width="1" opacity="0.996078431372549" d="M 270 188 Q 273.7 186.8 272 192 Q 268.3 193.5 269 190.5 L 270 188 Z " /><path fill="rgb(22,85,130)" stroke="rgb(22,85,130)" stroke-width="1" opacity="0.996078431372549" d="M 107.5 206 L 110.5 207 L 112 206.5 L 111.5 212 L 111 208 Q 106.8 208 107.5 206 Z " /><path fill="rgb(22,85,130)" stroke="rgb(22,85,130)" stroke-width="1" opacity="0.996078431372549" d="M 102 209 L 104 209.5 L 104 223 L 102 222.5 L 102 209 Z " /><path fill="rgb(22,85,130)" stroke="rgb(22,85,130)" stroke-width="1" opacity="0.996078431372549" d="M 395.5 209 L 396 270.5 L 395 270.5 L 395.5 209 Z " /><path fill="rgb(22,85,130)" stroke="rgb(22,85,130)" stroke-width="1" opacity="0.996078431372549" d="M 401.5 209 L 403 209.5 L 400 211.5 L 401.5 209 Z " /><path fill="rgb(22,85,130)" stroke="rgb(22,85,130)" stroke-width="1" opacity="0.996078431372549" d="M 95.5 213 L 96 216.5 L 94.5 221 Q 95.1 216 92 214.5 L 93.5 214 L 95 214.5 L 95.5 213 Z " /><path fill="rgb(22,85,130)" stroke="rgb(22,85,130)" stroke-width="1" opacity="0.996078431372549" d="M 408.5 214 L 409.5 216 L 408.5 214 Z " /><path fill="rgb(22,85,130)" stroke="rgb(22,85,130)" stroke-width="1" opacity="0.996078431372549" d="M 97.5 224 L 98 319.5 L 96 318.5 L 95 312.5 L 96 311.5 L 96 272.5 L 95 271.5 L 95 256.5 L 96 255.5 L 96 225.5 L 97.5 224 Z " /><path fill="rgb(22,85,130)" stroke="rgb(22,85,130)" stroke-width="1" opacity="0.996078431372549" d="M 313.5 232 L 314 239.5 L 313 239.5 L 313.5 232 Z " /><path fill="rgb(22,85,130)" stroke="rgb(22,85,130)" stroke-width="1" opacity="0.996078431372549" d="M 105.5 240 L 106 263.5 L 105 263.5 L 105.5 240 Z " /><path fill="rgb(22,85,130)" stroke="rgb(22,85,130)" stroke-width="1" opacity="0.996078431372549" d="M 186.5 288 L 188.5 288 L 191 289.5 L 189.5 289 L 188 289.5 L 188.5 291 L 186 290.5 L 186.5 288 Z " /><path fill="rgb(22,85,130)" stroke="rgb(22,85,130)" stroke-width="1" opacity="0.996078431372549" d="M 205 288 Q 209.5 286.5 208 291 Q 203.5 292.5 205 288 Z " /><path fill="rgb(22,85,130)" stroke="rgb(22,85,130)" stroke-width="1" opacity="0.996078431372549" d="M 288 288 Q 293.2 286.3 292 290 Q 286.8 291.7 288 288 Z " /><path fill="rgb(22,85,130)" stroke="rgb(22,85,130)" stroke-width="1" opacity="0.996078431372549" d="M 395.5 289 L 396 318.5 L 395 318.5 L 395.5 289 Z " /><path fill="rgb(22,85,130)" stroke="rgb(22,85,130)" stroke-width="1" opacity="0.996078431372549" d="M 197 292 Q 202.4 290.5 204 293.5 L 205 298 L 199.5 298 L 199 296.5 L 197 296.5 L 197 294.5 L 197 292 Z " /><path fill="rgb(22,85,130)" stroke="rgb(22,85,130)" stroke-width="1" opacity="0.996078431372549" d="M 294 292 L 302 293 L 301 295.5 L 301.5 299 L 297.5 297 L 298.5 300 L 296.5 301 L 295 300.5 L 294.5 302 L 293 295.5 L 294 292 Z " /><path fill="rgb(22,85,130)" stroke="rgb(22,85,130)" stroke-width="1" opacity="0.996078431372549" d="M 304 294 L 307 294.5 L 305 295 L 304.5 297 L 304 294 Z " /><path fill="rgb(22,85,130)" stroke="rgb(22,85,130)" stroke-width="1" opacity="0.996078431372549" d="M 202.5 300 L 212 305.5 L 209.5 307 L 207 306 Q 208.7 301.9 204.5 303 L 202.5 300 Z " /><path fill="rgb(22,85,130)" stroke="rgb(22,85,130)" stroke-width="1" opacity="0.996078431372549" d="M 292.5 303 Q 295.8 301.9 295 304.5 L 295.5 306 L 293.5 305 Q 295.3 307.5 290.5 310 L 289 310.5 L 289.5 314 L 287 308 L 290 307.5 L 289 305 L 292.5 303 Z " /><path fill="rgb(22,85,130)" stroke="rgb(22,85,130)" stroke-width="1" opacity="0.996078431372549" d="M 241.5 304 L 242 335.5 L 241 335.5 L 241.5 304 Z " /><path fill="rgb(22,85,130)" stroke="rgb(22,85,130)" stroke-width="1" opacity="0.996078431372549" d="M 243.5 304 L 244 311.5 L 243 311.5 L 243.5 304 Z " /><path fill="rgb(22,85,130)" stroke="rgb(22,85,130)" stroke-width="1" opacity="0.996078431372549" d="M 213.5 306 Q 217.3 305 216 308 L 213.5 306 Z " /><path fill="rgb(22,85,130)" stroke="rgb(22,85,130)" stroke-width="1" opacity="0.996078431372549" d="M 111.5 309 L 112 321.5 L 111 321.5 L 111.5 309 Z " /><path fill="rgb(22,85,130)" stroke="rgb(22,85,130)" stroke-width="1" opacity="0.996078431372549" d="M 216 309 L 219 309.5 L 218 311.5 L 219 313.5 L 216.5 315 L 216.5 314 L 218 313.5 L 215 313 L 216 309 Z " /><path fill="rgb(22,85,130)" stroke="rgb(22,85,130)" stroke-width="1" opacity="0.996078431372549" d="M 279.5 310 L 282 310.5 L 278.5 313 L 278 311.5 L 279.5 310 Z " /><path fill="rgb(22,85,130)" stroke="rgb(22,85,130)" stroke-width="1" opacity="0.996078431372549" d="M 283 310 L 286 310.5 L 283 315.5 L 283.5 317 L 280.5 316 L 278 317.5 L 278 315 Q 280.7 316.1 280 313.5 L 283 312 L 283 310 Z " /><path fill="rgb(22,85,130)" stroke="rgb(22,85,130)" stroke-width="1" opacity="0.996078431372549" d="M 279.5 320 L 281 320.5 L 277.5 323 L 276.5 321 Q 278 323.5 279.5 320 Z " /><path fill="rgb(22,85,130)" stroke="rgb(22,85,130)" stroke-width="1" opacity="0.996078431372549" d="M 393 320 Q 397.9 318.4 396 324 L 393 322.5 L 393 320 Z " /><path fill="rgb(22,85,130)" stroke="rgb(22,85,130)" stroke-width="1" opacity="0.996078431372549" d="M 222.5 321 L 227 324 L 226.5 329 L 224 328.5 Q 226.3 327.3 223.5 326 L 222 325.5 L 223 323.5 L 222.5 321 Z " /><path fill="rgb(22,85,130)" stroke="rgb(22,85,130)" stroke-width="1" opacity="0.996078431372549" d="M 273 324 Q 276 322.8 275 326.5 L 272 328.5 L 273 324 Z " /><path fill="rgb(22,85,130)" stroke="rgb(22,85,130)" stroke-width="1" opacity="0.996078431372549" d="M 237 325 L 240 325.5 L 238.5 329 L 237 329 L 237 325 Z " /><path fill="rgb(22,85,130)" stroke="rgb(22,85,130)" stroke-width="1" opacity="0.996078431372549" d="M 105.5 328 Q 107.8 327.3 107 329.5 L 105.5 328 Z " /><path fill="rgb(22,85,130)" stroke="rgb(22,85,130)" stroke-width="1" opacity="0.996078431372549" d="M 110.5 328 L 112 330.5 L 110 329.5 L 110.5 328 Z " /><path fill="rgb(22,85,130)" stroke="rgb(22,85,130)" stroke-width="1" opacity="0.996078431372549" d="M 229.5 330 L 231.5 334 L 232 332 Q 237.2 329.9 236 334.5 L 235 335.5 L 236.5 338 L 232 337 L 231.5 335 L 230.5 337 L 229 334.5 L 230 332.5 L 229.5 330 Z " /><path fill="rgb(22,85,130)" stroke="rgb(22,85,130)" stroke-width="1" opacity="0.996078431372549" d="M 272.5 333 L 273.5 335 L 272.5 333 Z " /><path fill="rgb(22,85,130)" stroke="rgb(22,85,130)" stroke-width="1" opacity="0.996078431372549" d="M 114.5 334 L 117 335.5 L 115.5 336 L 113.5 336 L 112 335.5 L 114.5 334 Z " /><path fill="rgb(22,85,130)" stroke="rgb(22,85,130)" stroke-width="1" opacity="0.996078431372549" d="M 136.5 334 L 137.5 336 L 133 335.5 L 136.5 334 Z " /><path fill="rgb(22,85,130)" stroke="rgb(22,85,130)" stroke-width="1" opacity="0.996078431372549" d="M 141.5 334 L 142.5 336 L 140 335.5 L 141.5 334 Z " /><path fill="rgb(22,85,130)" stroke="rgb(22,85,130)" stroke-width="1" opacity="0.996078431372549" d="M 388.5 334 L 387.5 336 L 388.5 334 Z " /><path fill="rgb(22,85,130)" stroke="rgb(22,85,130)" stroke-width="1" opacity="0.996078431372549" d="M 390 334 L 394 334.5 L 392.5 336 L 390 335.5 L 390 334 Z " /><path fill="rgb(22,85,130)" stroke="rgb(22,85,130)" stroke-width="1" opacity="0.996078431372549" d="M 123.5 335 L 128 335.5 L 123.5 336 L 123.5 335 Z " /><path fill="rgb(22,85,130)" stroke="rgb(22,85,130)" stroke-width="1" opacity="0.996078431372549" d="M 368 335 L 376 335.5 Q 374.8 338.3 373.5 336 L 370 337.5 L 368.5 341 L 351.5 342 L 350.5 341 L 334.5 341 L 332.5 342 L 330.5 341 L 330.5 343 L 328.5 342 L 326.5 342 L 324 341.5 L 333.5 339 L 335.5 340 L 335.5 338 L 336.5 339 L 352.5 339 L 355.5 338 L 367.5 338 L 368 335 Z " /><path fill="rgb(22,85,130)" stroke="rgb(22,85,130)" stroke-width="1" opacity="0.996078431372549" d="M 145.5 338 L 159.5 338 L 161 339.5 L 157.5 341 L 145.5 341 L 144 339.5 L 145.5 338 Z " /><path fill="rgb(22,85,130)" stroke="rgb(22,85,130)" stroke-width="1" opacity="0.996078431372549" d="M 168.5 338 L 172 339.5 Q 169.8 340.8 172.5 342 L 174 342.5 L 172.5 343 L 169.5 342 L 167.5 342 Q 163 343 162 340.5 L 162.5 339 L 164.5 339 L 168.5 338 Z " /><path fill="rgb(22,85,130)" stroke="rgb(22,85,130)" stroke-width="1" opacity="0.996078431372549" d="M 261.5 339 L 266 339.5 L 264 340.5 L 266 343.5 Q 264.3 341.9 262.5 345 L 259 344.5 L 261.5 339 Z " /><path fill="rgb(22,85,130)" stroke="rgb(22,85,130)" stroke-width="1" opacity="0.996078431372549" d="M 175.5 342 L 182 344.5 L 178 345.5 L 178.5 347 L 176 346.5 L 178 343.5 Q 174.7 343.6 175.5 342 Z " /><path fill="rgb(22,85,130)" stroke="rgb(22,85,130)" stroke-width="1" opacity="0.996078431372549" d="M 142.5 343 L 144.5 345 L 154.5 346 L 159.5 345 L 159.5 346 L 158 346.5 L 158.5 348 L 145 347.5 L 147 346.5 L 143.5 345 L 143 347 L 137.5 346 L 135.5 346 L 132 345.5 Q 133.3 342.8 134.5 345 L 137.5 344 L 139.5 344 L 142.5 343 Z " /><path fill="rgb(22,85,130)" stroke="rgb(22,85,130)" stroke-width="1" opacity="0.996078431372549" d="M 318 343 Q 321.3 341.9 320 346 L 323.5 346 L 328 347.5 L 323.5 348 L 321.5 348 Q 319.3 348.8 320 346.5 L 318.5 347 L 311.5 351 L 308.5 351 L 308.5 350 L 310 349.5 L 308 348.5 L 311.5 347 Q 313 349.5 314.5 346 L 318 344.5 L 318 343 Z " /><path fill="rgb(22,85,130)" stroke="rgb(22,85,130)" stroke-width="1" opacity="0.996078431372549" d="M 128.5 344 L 131 344.5 L 128.5 345 L 128.5 344 Z " /><path fill="rgb(22,85,130)" stroke="rgb(22,85,130)" stroke-width="1" opacity="0.996078431372549" d="M 236.5 344 L 240 348.5 L 237 348.5 L 238 346.5 L 236.5 344 Z " /><path fill="rgb(22,85,130)" stroke="rgb(22,85,130)" stroke-width="1" opacity="0.996078431372549" d="M 241.5 344 L 242 350.5 L 244 354.5 L 242.5 358 L 242 355.5 L 243 352 L 241 351.5 L 241.5 344 Z " /><path fill="rgb(22,85,130)" stroke="rgb(22,85,130)" stroke-width="1" opacity="0.996078431372549" d="M 375 344 L 380.5 345 L 383.5 344 L 382.5 346 L 375.5 346 L 375 344 Z " /><path fill="rgb(22,85,130)" stroke="rgb(22,85,130)" stroke-width="1" opacity="0.996078431372549" d="M 330.5 345 L 332 348 L 329 347.5 L 331 346.5 L 330.5 345 Z " /><path fill="rgb(22,85,130)" stroke="rgb(22,85,130)" stroke-width="1" opacity="0.996078431372549" d="M 333 345 L 335.5 346 L 339.5 345 L 340.5 346 L 352 346.5 L 344.5 348 L 341.5 347 L 340.5 348 L 333 348 L 333 345 Z " /><path fill="rgb(22,85,130)" stroke="rgb(22,85,130)" stroke-width="1" opacity="0.996078431372549" d="M 127.5 346 L 131 346.5 L 127.5 347 L 127.5 346 Z " /><path fill="rgb(22,85,130)" stroke="rgb(22,85,130)" stroke-width="1" opacity="0.996078431372549" d="M 162.5 346 L 166 346.5 L 162.5 347 L 162.5 346 Z " /><path fill="rgb(22,85,130)" stroke="rgb(22,85,130)" stroke-width="1" opacity="0.996078431372549" d="M 190.5 346 L 193 347.5 L 190 348 L 190.5 346 Z " /><path fill="rgb(22,85,130)" stroke="rgb(22,85,130)" stroke-width="1" opacity="0.996078431372549" d="M 361.5 346 Q 363.8 345.3 363 347.5 L 360.5 348 L 355 347.5 L 361.5 346 Z " /><path fill="rgb(22,85,130)" stroke="rgb(22,85,130)" stroke-width="1" opacity="0.996078431372549" d="M 366.5 346 L 367.5 348 L 366.5 346 Z " /><path fill="rgb(22,85,130)" stroke="rgb(22,85,130)" stroke-width="1" opacity="0.996078431372549" d="M 167.5 347 L 171 347.5 L 167.5 348 L 167.5 347 Z " /><path fill="rgb(22,85,130)" stroke="rgb(22,85,130)" stroke-width="1" opacity="0.996078431372549" d="M 187 348 L 194.5 350 L 194.5 348 Q 197.3 349.3 195 350.5 L 194.5 352 L 191.5 351 L 187 350 L 187 348 Z " /><path fill="rgb(22,85,130)" stroke="rgb(22,85,130)" stroke-width="1" opacity="0.996078431372549" d="M 302.5 348 L 305.5 349 L 307 349.5 L 305.5 350 Q 304 347.5 302.5 351 L 300 349.5 L 301.5 350 L 303 349.5 L 302.5 348 Z " /><path fill="rgb(22,85,130)" stroke="rgb(22,85,130)" stroke-width="1" opacity="0.996078431372549" d="M 110.5 349 L 111 351.5 L 109.5 351 L 108 350.5 L 110.5 349 Z " /><path fill="rgb(22,85,130)" stroke="rgb(22,85,130)" stroke-width="1" opacity="0.996078431372549" d="M 146.5 349 L 149 349.5 L 146.5 350 L 146.5 349 Z " /><path fill="rgb(22,85,130)" stroke="rgb(22,85,130)" stroke-width="1" opacity="0.996078431372549" d="M 258.5 349 L 257.5 351 L 258.5 349 Z " /><path fill="rgb(22,85,130)" stroke="rgb(22,85,130)" stroke-width="1" opacity="0.996078431372549" d="M 385.5 349 L 392 349.5 L 385.5 350 L 385.5 349 Z " /><path fill="rgb(22,85,130)" stroke="rgb(22,85,130)" stroke-width="1" opacity="0.996078431372549" d="M 92.5 352 L 94.5 352 Q 100 350.5 101.5 353 L 103.5 352 L 106 352.5 Q 104.8 355.3 103.5 353 L 101.5 354 L 98.5 353 L 95 354.5 L 95.5 356 L 92 354.5 L 92.5 352 Z " /><path fill="rgb(22,85,130)" stroke="rgb(22,85,130)" stroke-width="1" opacity="0.996078431372549" d="M 203.5 352 L 205.5 353 L 207 352.5 Q 207.8 355.1 204.5 354 L 202 353.5 L 203.5 352 Z " /><path fill="rgb(22,85,130)" stroke="rgb(22,85,130)" stroke-width="1" opacity="0.996078431372549" d="M 258.5 352 L 259 355.5 L 258 355.5 L 258.5 352 Z " /><path fill="rgb(22,85,130)" stroke="rgb(22,85,130)" stroke-width="1" opacity="0.996078431372549" d="M 260.5 352 L 263 353.5 L 261 354.5 L 261.5 356 Q 259 355 260.5 352 Z " /><path fill="rgb(22,85,130)" stroke="rgb(22,85,130)" stroke-width="1" opacity="0.996078431372549" d="M 298.5 352 L 298.5 355 L 296 353.5 L 298.5 352 Z " /><path fill="rgb(22,85,130)" stroke="rgb(22,85,130)" stroke-width="1" opacity="0.996078431372549" d="M 396.5 352 L 401 352.5 L 396.5 353 L 396.5 352 Z " /><path fill="rgb(22,85,130)" stroke="rgb(22,85,130)" stroke-width="1" opacity="0.996078431372549" d="M 405.5 352 Q 409.3 351.3 410 353.5 L 407.5 355 L 407.5 353 Q 404.5 353.5 405.5 352 Z " /><path fill="rgb(25,86,129)" stroke="rgb(25,86,129)" stroke-width="1" opacity="1" d="M 314.5 132 L 312 135.5 Q 312.8 137.8 310.5 137 L 311 135.5 Q 310.3 133.3 312.5 134 L 314.5 132 Z " /><path fill="rgb(25,86,129)" stroke="rgb(25,86,129)" stroke-width="1" opacity="1" d="M 191.5 133 L 192 134.5 L 189 138.5 L 190 141 Q 192.7 142.1 192 139.5 L 195 138 L 196.5 135 L 200 141 Q 195.5 139.5 197 144 L 207 143.5 L 205.5 141 L 204 141.5 Q 206 138 208 142.5 L 209 145.5 L 208.5 147 Q 211.8 148.1 211 145.5 Q 208.8 144.3 211.5 143 L 212.5 146 Q 214.8 145.3 214 147.5 L 217 148.5 L 214.5 150 L 210.5 148 L 209 148.5 L 210.5 151 Q 209.3 148.8 208 151.5 L 212 152 L 213.5 156 L 217.5 157 L 219 153.5 Q 216.8 152.3 219.5 151 L 221 151.5 L 220.5 153 L 223 154.5 L 223.5 156 L 225 155.5 L 224 161 L 227.5 160 L 232.5 166 Q 231.8 163.3 227.5 164 L 228 165.5 L 227 173 Q 222.5 171.5 224 176 L 228 176 Q 226.5 172.3 229.5 173 L 232 172 L 232.5 176 L 234 172.5 L 234.5 169 Q 237.3 170.3 235 171.5 Q 233.9 174.8 236.5 174 Q 237.8 171.8 239 174.5 L 234 175.5 Q 238.6 174.9 240 177.5 Q 239.3 181.8 242 182.5 L 240 182.5 L 240.5 190 L 242 189.5 L 243 194.5 L 242 196.5 L 243 197.5 L 243 207.5 L 244 208.5 L 244 303.5 Q 241.3 305.3 243 311.5 L 244 312.5 L 244 343.5 Q 241.5 345 243 350.5 L 243.5 352 Q 240.5 350.5 242 344.5 L 240 341 Q 237.3 342.1 238 339.5 L 236.5 340 L 235 339.5 L 237 339 L 236 332 L 232 332 L 232 333.5 L 231 333.5 L 230 331.5 L 231.5 328 L 232.5 331 L 235 330 L 234 325 L 230.5 324 L 226.5 330 Q 224.3 330.8 225 328.5 L 224.5 327 L 227 328.5 Q 228.9 323.1 225.5 324 L 224 320 L 220 320 L 220 318.5 L 224 316 L 224 312 Q 221.3 313.1 222 310.5 L 221 310.5 L 220 312.5 L 222 313.5 L 219 314 L 217.5 317 L 215 315.5 L 219 313.5 Q 221.1 307.6 216.5 309 L 214 309.5 L 215 311.5 L 211.5 309 L 207.5 307 L 206 307.5 L 208.5 306 L 210.5 306 L 212 305.5 Q 209.3 301.7 203.5 301 L 204.5 303 L 206 303.5 L 204.5 304 L 202 303 L 203 300.5 L 200 298.5 L 205 298 L 202.5 292 L 197 292 L 197 294.5 L 198.5 297 L 192 292.5 L 191 288 L 187 287.5 L 187 272.5 L 186 272.5 L 185.5 288 L 185 272.5 L 184 271.5 L 186 271 L 186 207.5 L 185 206.5 L 185 193.5 L 186 192.5 L 186 175.5 L 185 174.5 L 185 144.5 L 184 143.5 L 186 143.5 L 185.5 141 L 184 141.5 L 188 139 L 188.5 135 Q 189.8 137.3 191 134.5 L 191.5 133 Z M 187 142 L 188 145 L 189 159 L 189 145 L 190 144 L 187 142 Z M 192 143 L 190 145 L 190 161 L 192 160 L 192 143 Z M 225 165 Q 222 171 226 170 Q 227 166 225 165 Z M 191 191 L 190 271 L 192 272 L 192 193 L 191 191 Z M 189 193 L 188 209 L 189 209 L 189 193 Z M 241 193 L 240 204 L 242 205 L 241 193 Z M 241 208 L 241 287 L 241 265 L 242 264 Q 244 257 241 256 L 241 208 Z M 189 273 L 188 287 L 189 287 L 189 273 Z M 205 288 Q 204 293 208 291 Q 210 287 205 288 Z M 242 304 L 240 306 L 240 319 L 241 320 L 241 330 L 240 331 Q 241 334 239 333 L 237 337 L 240 337 L 242 336 L 242 329 L 243 328 L 242 304 Z M 214 306 L 216 308 Q 217 305 214 306 Z M 237 325 L 237 329 L 239 329 L 240 326 L 237 325 Z " /><path fill="rgb(25,86,129)" stroke="rgb(25,86,129)" stroke-width="1" opacity="1" d="M 305.5 135 Q 308.5 136.6 307 142 L 305 141.5 L 306 136.5 L 305.5 135 Z " /><path fill="rgb(25,86,129)" stroke="rgb(25,86,129)" stroke-width="1" opacity="1" d="M 300.5 137 L 302 137.5 L 299.5 139 L 300.5 137 Z " /><path fill="rgb(25,86,129)" stroke="rgb(25,86,129)" stroke-width="1" opacity="1" d="M 203.5 138 L 201.5 141 L 203.5 138 Z " /><path fill="rgb(25,86,129)" stroke="rgb(25,86,129)" stroke-width="1" opacity="1" d="M 309.5 138 Q 312.1 143.4 311.5 152 Q 310.6 145.1 313.5 142 L 314 144.5 L 314 146.5 Q 315.3 152.3 312 153.5 L 314 154.5 L 310.5 157 L 310 144.5 L 308 139.5 L 309.5 138 Z " /><path fill="rgb(25,86,129)" stroke="rgb(25,86,129)" stroke-width="1" opacity="1" d="M 315.5 139 Q 318.3 140.3 316 141.5 L 315.5 144 L 315 141.5 L 315.5 139 Z " /><path fill="rgb(25,86,129)" stroke="rgb(25,86,129)" stroke-width="1" opacity="1" d="M 294.5 140 L 295.5 142 L 294.5 140 Z " /><path fill="rgb(25,86,129)" stroke="rgb(25,86,129)" stroke-width="1" opacity="1" d="M 301 141 Q 304.7 139.5 304 142.5 L 301 143.5 L 304 144 L 304 287.5 L 303 289.5 L 305 293.5 L 301.5 298 L 302 294.5 Q 302.8 292.3 300.5 293 L 294 292 L 293 296.5 L 294.5 302 L 295.5 300 L 297 304.5 L 294.5 303 L 290.5 305 L 288 304 L 289 307.5 L 287 308 L 288 311.5 L 285.5 313 L 285 311.5 L 285.5 310 Q 279.5 308.5 278 311.5 L 278.5 318 L 282.5 316 L 281.5 318 L 280 318.5 L 282 319.5 L 279 320.5 Q 281.8 322.3 277.5 324 L 275.5 323 L 272 325.5 L 272 327.5 Q 271.3 329.8 273.5 329 L 275 328.5 Q 270.8 330.1 272 336 L 265 336.5 Q 267.3 337.8 264.5 339 Q 260.8 338.3 260 340.5 L 259.5 344 L 257 339.5 L 257 192.5 L 259 186 Q 261.7 184.9 261 187.5 L 260 191.5 L 261.5 191 L 263.5 192 L 264 189 L 262 188.5 L 264 187.5 L 264 185.5 L 264 182.5 L 267.5 178 L 271 177.5 L 268 175.5 L 269 171 L 265 173.5 Q 265.8 175.8 263.5 175 L 264 173.5 L 263 171.5 Q 265.8 173.4 268.5 168 L 270 168.5 L 269 171 L 272 169.5 L 272 160.5 L 273.5 159 Q 274.8 161.3 279.5 160 L 284 156.5 L 285 152 Q 288.7 153.5 288 150.5 L 286.5 148 Q 289.1 148.8 288 145.5 Q 289.5 142.5 295.5 144 L 297.5 145 L 301 142.5 L 301 141 Z M 267 182 L 266 185 L 267 190 L 270 185 Q 271 180 267 182 Z M 270 188 L 269 191 Q 268 194 272 192 Q 274 187 270 188 Z M 288 288 Q 287 292 292 290 Q 293 286 288 288 Z M 290 295 L 288 298 L 290 299 L 290 295 Z M 272 320 L 272 324 L 274 323 Q 275 319 272 320 Z M 277 320 L 276 322 L 278 321 L 277 320 Z " /><path fill="rgb(25,86,129)" stroke="rgb(25,86,129)" stroke-width="1" opacity="1" d="M 278.5 155 L 277.5 157 L 278.5 155 Z " /><path fill="rgb(25,86,129)" stroke="rgb(25,86,129)" stroke-width="1" opacity="1" d="M 310 159 L 314 160.5 L 314 231.5 Q 311.3 233.2 313 239.5 L 314 240.5 L 314 279.5 L 313 279.5 L 313 240.5 Q 310.2 238.7 312 232.5 Q 314.8 230.7 313 224.5 L 312 223.5 L 312 192.5 L 313 191.5 L 313 176.5 L 312 175.5 L 312 166.5 L 313 161.5 L 311 160.5 L 311 286.5 L 312 287.5 L 310 288 L 310 159 Z " /><path fill="rgb(25,86,129)" stroke="rgb(25,86,129)" stroke-width="1" opacity="1" d="M 394.5 205 L 395.5 207 Q 392.7 207.7 394.5 205 Z " /><path fill="rgb(25,86,129)" stroke="rgb(25,86,129)" stroke-width="1" opacity="1" d="M 106.5 206 L 107 208.5 L 107 223.5 L 109 224 L 109 209.5 L 108 208.5 L 110 208 L 110 319.5 Q 112.7 321.3 111 327.5 L 110 327.5 L 109.5 320 L 108 329.5 L 109.5 332 L 110.5 330 L 112 333.5 L 110 334 Q 108.7 337.3 113.5 336 L 115.5 337 L 120.5 334 L 133.5 334 L 132.5 336 L 131 336.5 L 134.5 337 L 135.5 336 L 144 335.5 L 142 334.5 L 143.5 334 L 146 335.5 L 145.5 337 L 153.5 335 L 155.5 336 L 157.5 336 L 167 338.5 L 163.5 340 L 162 339.5 L 163 341.5 L 145 342 L 144.5 345 Q 143 341.5 141.5 344 L 134.5 345 Q 133.3 342.8 132 345.5 Q 131.2 348.1 134.5 347 L 134.5 348 L 130.5 349 L 129.5 347 Q 132.5 347.7 131 344 Q 127.3 342.5 128 345.5 L 127 348.5 L 127.5 350 L 122.5 349 L 119.5 351 Q 113.4 350.3 111 352 L 110.5 349 L 108 350.5 L 110 351.5 L 93 352 L 92 224.5 L 96 219.5 L 96 213.5 L 93 212.5 L 96 212 L 97.5 209 Q 102.1 209.6 103.5 207 Q 105 209.5 106.5 206 Z M 102 209 L 102 223 L 104 223 L 104 210 L 102 209 Z M 98 224 L 96 226 L 96 256 L 95 240 L 94 256 L 93 257 L 94 309 L 95 309 L 95 281 L 94 280 L 94 273 L 96 272 L 96 312 L 94 312 L 95 328 L 96 314 L 96 319 L 98 320 L 98 224 Z M 101 224 L 99 226 L 99 320 L 102 320 L 102 225 L 101 224 Z M 106 240 L 105 264 L 106 264 L 106 240 Z M 108 240 L 107 264 L 108 264 L 108 240 Z M 105 312 L 104 323 L 105 323 L 105 312 Z M 108 312 L 107 320 L 108 320 L 108 312 Z M 97 321 L 95 336 L 97 335 L 97 321 Z M 104 328 L 105 331 L 105 330 L 107 330 Q 108 327 104 328 Z M 123 335 L 123 337 L 129 336 L 130 338 L 131 336 L 123 335 Z M 95 336 L 94 351 L 95 351 L 95 336 Z M 146 338 L 144 340 L 146 341 L 158 341 L 161 340 L 160 338 L 146 338 Z M 130 341 L 130 342 L 132 342 L 130 341 Z M 124 345 L 124 346 L 127 346 L 124 345 Z M 121 347 L 121 348 L 123 348 L 121 347 Z " /><path fill="rgb(25,86,129)" stroke="rgb(25,86,129)" stroke-width="1" opacity="1" d="M 392.5 207 L 394 208.5 L 394 319.5 L 393 323.5 L 396 325.5 L 396 209.5 L 395 208.5 L 397.5 208 L 400 209 L 400 213 L 401.5 213 L 402.5 210 L 405.5 214 Q 406.8 211.8 408 214.5 L 408 218.5 Q 405 217.5 406 222.5 L 407 222.5 L 407.5 221 L 409 223.5 L 408 224.5 L 408 348.5 L 409 351.5 L 407.5 351 L 403.5 353 Q 402 350.5 396.5 352 L 396.5 353 L 400 353.5 L 395.5 354 L 393.5 352 L 384.5 351 L 380.5 349 L 377.5 350 L 378.5 348 L 380 347.5 L 377 346.5 Q 382.4 347.4 384 344.5 L 380.5 344 L 378.5 345 L 375 344 L 376 346.5 L 370.5 348 L 369 347.5 L 368.5 349 L 368 346.5 L 369 344.5 L 368 342 L 362 341.5 L 368.5 341 L 370 339.5 L 371.5 336 L 374.5 337 L 376 334 L 382 334.5 L 381.5 336 Q 386.9 337.9 386 334.5 L 387 334.5 Q 386.4 337.3 392.5 336 L 393.5 334 L 391 333.5 Q 393.7 331.2 393 325.5 L 391 320.5 L 392 319.5 L 392.5 207 Z M 399 330 L 397 332 L 399 332 L 399 330 Z M 385 347 L 385 348 L 392 348 L 385 347 Z M 386 349 L 386 350 L 392 350 L 386 349 Z " /><path fill="rgb(25,86,129)" stroke="rgb(25,86,129)" stroke-width="1" opacity="1" d="M 94.5 209 L 93.5 211 L 94.5 209 Z " /><path fill="rgb(25,86,129)" stroke="rgb(25,86,129)" stroke-width="1" opacity="1" d="M 92.5 216 L 93 218.5 L 92 218.5 L 92.5 216 Z " /><path fill="rgb(25,86,129)" stroke="rgb(25,86,129)" stroke-width="1" opacity="1" d="M 409.5 218 L 410 220.5 L 409 220.5 L 409.5 218 Z " /><path fill="rgb(25,86,129)" stroke="rgb(25,86,129)" stroke-width="1" opacity="1" d="M 316.5 232 L 317 247.5 L 316 247.5 L 316.5 232 Z " /><path fill="rgb(25,86,129)" stroke="rgb(25,86,129)" stroke-width="1" opacity="1" d="M 316.5 264 L 317 272.5 L 316 272.5 L 316.5 264 Z " /><path fill="rgb(25,86,129)" stroke="rgb(25,86,129)" stroke-width="1" opacity="1" d="M 308.5 290 L 311 291.5 L 309.5 292 L 308.5 290 Z " /><path fill="rgb(25,86,129)" stroke="rgb(25,86,129)" stroke-width="1" opacity="1" d="M 305.5 291 L 307 293.5 L 306 293.5 L 305.5 291 Z " /><path fill="rgb(25,86,129)" stroke="rgb(25,86,129)" stroke-width="1" opacity="1" d="M 276 326 L 278 326.5 L 276 327.5 L 276 326 Z " /><path fill="rgb(25,86,129)" stroke="rgb(25,86,129)" stroke-width="1" opacity="1" d="M 363.5 333 L 366 333.5 L 364 334.5 L 366 335.5 L 364.5 336 L 362.5 335 L 361 335.5 L 363.5 333 Z " /><path fill="rgb(25,86,129)" stroke="rgb(25,86,129)" stroke-width="1" opacity="1" d="M 368.5 334 L 375 334.5 L 368 335 L 368 338 L 360.5 338 L 360.5 337 Q 367.5 338.5 367 335.5 L 368.5 334 Z " /><path fill="rgb(25,86,129)" stroke="rgb(25,86,129)" stroke-width="1" opacity="1" d="M 231.5 336 L 234 339.5 L 232 338.5 L 231.5 336 Z " /><path fill="rgb(25,86,129)" stroke="rgb(25,86,129)" stroke-width="1" opacity="1" d="M 338.5 337 L 351.5 338 L 353 338.5 L 336.5 339 L 336.5 338 L 338.5 337 Z " /><path fill="rgb(25,86,129)" stroke="rgb(25,86,129)" stroke-width="1" opacity="1" d="M 321.5 341 L 322 342.5 L 320.5 345 L 320 342.5 L 321.5 341 Z " /><path fill="rgb(25,86,129)" stroke="rgb(25,86,129)" stroke-width="1" opacity="1" d="M 323.5 341 L 325.5 345 L 327 345.5 L 324.5 347 L 323 343.5 L 323.5 341 Z " /><path fill="rgb(25,86,129)" stroke="rgb(25,86,129)" stroke-width="1" opacity="1" d="M 336 341 L 350.5 341 L 351.5 342 L 360 342.5 L 355 343.5 L 358 345.5 Q 356.6 348.6 351.5 348 L 352 346.5 Q 352.8 344.3 350.5 345 L 347.5 346 L 344.5 345 L 340.5 346 L 340.5 345 L 352 343.5 L 336 343 L 336 341 Z " /><path fill="rgb(25,86,129)" stroke="rgb(25,86,129)" stroke-width="1" opacity="1" d="M 165.5 342 L 169 343.5 L 168 346 Q 162.8 347.7 164 344 L 166 343.5 L 165.5 342 Z " /><path fill="rgb(25,86,129)" stroke="rgb(25,86,129)" stroke-width="1" opacity="1" d="M 171.5 342 L 172.5 344 L 171.5 342 Z " /><path fill="rgb(25,86,129)" stroke="rgb(25,86,129)" stroke-width="1" opacity="1" d="M 174.5 342 L 175.5 344 L 174.5 342 Z " /><path fill="rgb(25,86,129)" stroke="rgb(25,86,129)" stroke-width="1" opacity="1" d="M 236.5 343 L 240 345.5 L 238.5 345 L 236.5 344 L 235 344.5 L 236.5 343 Z " /><path fill="rgb(25,86,129)" stroke="rgb(25,86,129)" stroke-width="1" opacity="1" d="M 329 343 Q 333.5 342.2 335.5 345 L 337 344.5 Q 335.8 347.3 334.5 345 L 330 344 L 329.5 346 L 329 343 Z " /><path fill="rgb(25,86,129)" stroke="rgb(25,86,129)" stroke-width="1" opacity="1" d="M 152.5 344 L 155 344.5 L 152.5 345 L 152.5 344 Z " /><path fill="rgb(25,86,129)" stroke="rgb(25,86,129)" stroke-width="1" opacity="1" d="M 182.5 344 L 186.5 347 L 189.5 346 L 188.5 348 Q 185.9 347.2 187 350.5 L 184.5 349 L 180 348 L 179.5 350 Q 176.8 348.7 179 347.5 L 179.5 345 L 180 347 Q 183.1 348.1 182.5 344 Z " /><path fill="rgb(25,86,129)" stroke="rgb(25,86,129)" stroke-width="1" opacity="1" d="M 259 345 L 261 345 Q 259.9 347.7 262.5 347 L 262.5 348 Q 258.8 346.8 260 350.5 L 257.5 352 Q 254.8 350.8 257 349.5 L 259 345 Z " /><path fill="rgb(25,86,129)" stroke="rgb(25,86,129)" stroke-width="1" opacity="1" d="M 359 345 L 362 345.5 L 359 347 L 359 345 Z " /><path fill="rgb(25,86,129)" stroke="rgb(25,86,129)" stroke-width="1" opacity="1" d="M 364.5 345 L 367 345.5 L 364.5 346 L 364.5 345 Z " /><path fill="rgb(25,86,129)" stroke="rgb(25,86,129)" stroke-width="1" opacity="1" d="M 143.5 346 L 144.5 348 L 143.5 346 Z " /><path fill="rgb(25,86,129)" stroke="rgb(25,86,129)" stroke-width="1" opacity="1" d="M 161.5 346 L 160.5 348 L 161.5 346 Z " /><path fill="rgb(25,86,129)" stroke="rgb(25,86,129)" stroke-width="1" opacity="1" d="M 170.5 346 L 174 347.5 L 168.5 349 L 168.5 348 L 171 347.5 L 170.5 346 Z " /><path fill="rgb(25,86,129)" stroke="rgb(25,86,129)" stroke-width="1" opacity="1" d="M 236.5 346 L 237.5 348 L 236.5 346 Z " /><path fill="rgb(25,86,129)" stroke="rgb(25,86,129)" stroke-width="1" opacity="1" d="M 319.5 346 L 320 348 L 322.5 347 L 321.5 349 L 317 348 Q 318.3 351 314.5 350 L 314.5 349 L 319.5 346 Z " /><path fill="rgb(25,86,129)" stroke="rgb(25,86,129)" stroke-width="1" opacity="1" d="M 363.5 347 L 366 348 L 365.5 350 L 363 349 L 363.5 347 Z " /><path fill="rgb(25,86,129)" stroke="rgb(25,86,129)" stroke-width="1" opacity="1" d="M 324.5 348 L 329.5 349 L 331 348.5 Q 329.8 351.3 328.5 349 Q 323.5 348 322.5 351 L 324.5 348 Z " /><path fill="rgb(25,86,129)" stroke="rgb(25,86,129)" stroke-width="1" opacity="1" d="M 189.5 350 L 188.5 352 L 189.5 350 Z " /><path fill="rgb(25,86,129)" stroke="rgb(25,86,129)" stroke-width="1" opacity="1" d="M 304.5 350 L 305.5 352 L 307.5 351 L 307.5 352 L 305.5 353 L 304.5 350 Z " /><path fill="rgb(25,86,129)" stroke="rgb(25,86,129)" stroke-width="1" opacity="1" d="M 312.5 350 L 315 351.5 L 312 352 L 312.5 350 Z " /><path fill="rgb(25,86,129)" stroke="rgb(25,86,129)" stroke-width="1" opacity="1" d="M 200.5 351 L 199.5 353 L 200.5 351 Z " /><path fill="rgb(25,86,129)" stroke="rgb(25,86,129)" stroke-width="1" opacity="1" d="M 241.5 352 L 242 356.5 L 240 355.5 L 241.5 352 Z " /><path fill="rgb(25,86,129)" stroke="rgb(25,86,129)" stroke-width="1" opacity="1" d="M 101.5 354 L 100.5 356 L 101.5 354 Z " /><path fill="rgb(25,86,129)" stroke="rgb(25,86,129)" stroke-width="1" opacity="1" d="M 407.5 355 L 408.5 357 L 407.5 355 Z " /><path fill="rgb(25,86,129)" stroke="rgb(25,86,129)" stroke-width="1" opacity="1" d="M 256 358 L 259 358.5 L 256 360 L 256 358 Z " /><path fill="rgb(29,87,134)" stroke="rgb(29,87,134)" stroke-width="1" opacity="0.996078431372549" d="M 184 131 L 186 131.5 L 185 134 L 188 134.5 L 185 135 L 186 139.5 L 186 141.5 L 185 144.5 L 185 174.5 L 186 175.5 L 186 192.5 L 185 193.5 L 185 206.5 L 186 207.5 L 186 271 L 184 270.5 L 184 144.5 L 185 141.5 Q 182.8 140.3 184 135.5 L 184 133.5 L 184 131 Z " /><path fill="rgb(29,87,134)" stroke="rgb(29,87,134)" stroke-width="1" opacity="0.996078431372549" d="M 309.5 132 L 313 133.5 L 310 134.5 L 310.5 136 L 307.5 135 L 306 135.5 L 306.5 133 L 309.5 134 L 309.5 132 Z " /><path fill="rgb(29,87,134)" stroke="rgb(29,87,134)" stroke-width="1" opacity="0.996078431372549" d="M 190.5 134 L 191.5 136 L 189 135.5 L 190.5 134 Z " /><path fill="rgb(29,87,134)" stroke="rgb(29,87,134)" stroke-width="1" opacity="0.996078431372549" d="M 312 135 L 315 136.5 L 315 154.5 L 316 155.5 L 314 156.5 L 315 158.5 L 315 160.5 L 314.5 176 L 314 160.5 L 312.5 159 Q 309.2 160.1 310 157.5 Q 312 153.8 314 155.5 L 314 139.5 Q 311.3 138.4 312 135 Z " /><path fill="rgb(29,87,134)" stroke="rgb(29,87,134)" stroke-width="1" opacity="0.996078431372549" d="M 316.5 136 L 317 139.5 L 316 139.5 L 316.5 136 Z " /><path fill="rgb(29,87,134)" stroke="rgb(29,87,134)" stroke-width="1" opacity="0.996078431372549" d="M 201.5 137 L 203 137.5 L 201 138.5 L 204 140 L 202.5 144 L 200 142.5 L 201.5 143 Q 203.8 143.8 203 141.5 L 200 140.5 L 201.5 137 Z " /><path fill="rgb(29,87,134)" stroke="rgb(29,87,134)" stroke-width="1" opacity="0.996078431372549" d="M 208.5 141 L 211 145.5 L 213 148.5 L 210.5 147 L 208 146.5 L 209 144.5 L 208.5 141 Z " /><path fill="rgb(29,87,134)" stroke="rgb(29,87,134)" stroke-width="1" opacity="0.996078431372549" d="M 297.5 141 L 300 141.5 L 297.5 142 L 297.5 141 Z " /><path fill="rgb(29,87,134)" stroke="rgb(29,87,134)" stroke-width="1" opacity="0.996078431372549" d="M 291.5 142 L 296 143.5 L 294.5 144 L 291.5 143 L 290 143.5 L 291.5 142 Z " /><path fill="rgb(29,87,134)" stroke="rgb(29,87,134)" stroke-width="1" opacity="0.996078431372549" d="M 304 142 Q 307 141 306 144 Q 303 145 304 142 Z " /><path fill="rgb(29,87,134)" stroke="rgb(29,87,134)" stroke-width="1" opacity="0.996078431372549" d="M 191.5 143 L 192 159.5 L 190 160.5 L 190 144.5 L 191.5 143 Z " /><path fill="rgb(29,87,134)" stroke="rgb(29,87,134)" stroke-width="1" opacity="0.996078431372549" d="M 286.5 145 Q 289.5 146.5 286.5 148 L 286.5 145 Z " /><path fill="rgb(29,87,134)" stroke="rgb(29,87,134)" stroke-width="1" opacity="0.996078431372549" d="M 218.5 149 L 216.5 152 L 218.5 149 Z " /><path fill="rgb(29,87,134)" stroke="rgb(29,87,134)" stroke-width="1" opacity="0.996078431372549" d="M 209.5 150 L 214 151.5 L 209 152 L 209.5 150 Z " /><path fill="rgb(29,87,134)" stroke="rgb(29,87,134)" stroke-width="1" opacity="0.996078431372549" d="M 284 150 L 288 151.5 L 286.5 151 L 278.5 155 L 278.5 154 L 281 152.5 Q 280.3 150.3 282.5 151 L 284 151.5 L 284 150 Z " /><path fill="rgb(29,87,134)" stroke="rgb(29,87,134)" stroke-width="1" opacity="0.996078431372549" d="M 276.5 154 L 275.5 156 L 276.5 154 Z " /><path fill="rgb(29,87,134)" stroke="rgb(29,87,134)" stroke-width="1" opacity="0.996078431372549" d="M 224.5 156 L 227.5 160 L 225.5 159 L 224 159.5 L 225 157.5 L 224.5 156 Z " /><path fill="rgb(29,87,134)" stroke="rgb(29,87,134)" stroke-width="1" opacity="0.996078431372549" d="M 279.5 156 L 280.5 158 L 277 158.5 L 277.5 160 Q 274.5 160.7 276 157 L 279.5 156 Z " /><path fill="rgb(29,87,134)" stroke="rgb(29,87,134)" stroke-width="1" opacity="0.996078431372549" d="M 273.5 157 L 275 159.5 L 273 158.5 L 273.5 157 Z " /><path fill="rgb(29,87,134)" stroke="rgb(29,87,134)" stroke-width="1" opacity="0.996078431372549" d="M 316.5 160 L 317 231.5 L 316 231.5 L 316.5 160 Z " /><path fill="rgb(29,87,134)" stroke="rgb(29,87,134)" stroke-width="1" opacity="0.996078431372549" d="M 271.5 161 L 272 162.5 L 271.5 165 Q 269.3 165.8 270 163.5 L 271.5 161 Z " /><path fill="rgb(29,87,134)" stroke="rgb(29,87,134)" stroke-width="1" opacity="0.996078431372549" d="M 234.5 166 L 233.5 168 L 232 167.5 L 234.5 166 Z " /><path fill="rgb(29,87,134)" stroke="rgb(29,87,134)" stroke-width="1" opacity="0.996078431372549" d="M 270.5 166 L 272 166.5 L 268.5 168 L 268.5 167 L 270.5 166 Z " /><path fill="rgb(29,87,134)" stroke="rgb(29,87,134)" stroke-width="1" opacity="0.996078431372549" d="M 232.5 169 L 234 172.5 L 233.5 175 Q 230.8 173.8 233 172.5 L 232.5 169 Z " /><path fill="rgb(29,87,134)" stroke="rgb(29,87,134)" stroke-width="1" opacity="0.996078431372549" d="M 236.5 171 L 238.5 174 L 236.5 171 Z " /><path fill="rgb(29,87,134)" stroke="rgb(29,87,134)" stroke-width="1" opacity="0.996078431372549" d="M 262 175 L 265 175.5 L 263 176.5 L 264 178.5 L 263 178.5 L 262.5 177 L 262 179.5 L 264 182.5 L 262 181.5 L 261.5 180 L 260 180.5 L 262 175 Z " /><path fill="rgb(29,87,134)" stroke="rgb(29,87,134)" stroke-width="1" opacity="0.996078431372549" d="M 240.5 182 L 241.5 184 L 240.5 182 Z " /><path fill="rgb(29,87,134)" stroke="rgb(29,87,134)" stroke-width="1" opacity="0.996078431372549" d="M 259.5 182 Q 262.5 181.1 261 185.5 L 260 185.5 L 259.5 182 Z " /><path fill="rgb(29,87,134)" stroke="rgb(29,87,134)" stroke-width="1" opacity="0.996078431372549" d="M 240.5 187 L 241.5 189 L 240.5 187 Z " /><path fill="rgb(29,87,134)" stroke="rgb(29,87,134)" stroke-width="1" opacity="0.996078431372549" d="M 260.5 188 L 262 190.5 L 260 189.5 L 260.5 188 Z " /><path fill="rgb(29,87,134)" stroke="rgb(29,87,134)" stroke-width="1" opacity="0.996078431372549" d="M 243.5 189 L 241.5 192 L 243.5 189 Z " /><path fill="rgb(29,87,134)" stroke="rgb(29,87,134)" stroke-width="1" opacity="0.996078431372549" d="M 190.5 191 L 192 192.5 L 192 271.5 L 190 270.5 L 190.5 191 Z " /><path fill="rgb(29,87,134)" stroke="rgb(29,87,134)" stroke-width="1" opacity="0.996078431372549" d="M 314.5 192 L 315 287.5 L 314.5 290 L 312 287.5 L 312 272.5 L 313 272.5 L 313.5 288 L 314.5 192 Z " /><path fill="rgb(29,87,134)" stroke="rgb(29,87,134)" stroke-width="1" opacity="0.996078431372549" d="M 240.5 193 L 242 204.5 L 240 203.5 L 240.5 193 Z " /><path fill="rgb(29,87,134)" stroke="rgb(29,87,134)" stroke-width="1" opacity="0.996078431372549" d="M 108.5 205 Q 111.8 206.8 108 208.5 L 107.5 224 L 107 208.5 L 106 207.5 L 109 206.5 L 108.5 205 Z " /><path fill="rgb(29,87,134)" stroke="rgb(29,87,134)" stroke-width="1" opacity="0.996078431372549" d="M 392.5 206 L 395 207.5 L 395 270.5 L 396 271.5 L 396 288.5 L 395 289.5 L 395 318.5 L 395.5 320 L 394 319.5 L 394 207.5 L 392.5 207 L 392.5 206 Z " /><path fill="rgb(29,87,134)" stroke="rgb(29,87,134)" stroke-width="1" opacity="0.996078431372549" d="M 240.5 208 L 241 255.5 Q 243.8 257.3 242 263.5 L 241 264.5 L 240.5 287 L 240.5 208 Z " /><path fill="rgb(29,87,134)" stroke="rgb(29,87,134)" stroke-width="1" opacity="0.996078431372549" d="M 402.5 211 L 401.5 213 L 400 212.5 L 402.5 211 Z " /><path fill="rgb(29,87,134)" stroke="rgb(29,87,134)" stroke-width="1" opacity="0.996078431372549" d="M 92.5 213 L 95 214.5 L 93.5 214 L 92.5 213 Z " /><path fill="rgb(29,87,134)" stroke="rgb(29,87,134)" stroke-width="1" opacity="0.996078431372549" d="M 408.5 213 Q 411.3 214.3 409 215.5 L 408.5 223 L 407.5 221 L 406.5 223 L 406 219 Q 409.3 220.3 408 215.5 L 408.5 213 Z " /><path fill="rgb(29,87,134)" stroke="rgb(29,87,134)" stroke-width="1" opacity="0.996078431372549" d="M 92.5 215 Q 95.3 216.3 94 221.5 L 93 221.5 L 92 219.5 L 93 216.5 L 92.5 215 Z " /><path fill="rgb(29,87,134)" stroke="rgb(29,87,134)" stroke-width="1" opacity="0.996078431372549" d="M 95.5 217 L 96 219.5 L 95 219.5 L 95.5 217 Z " /><path fill="rgb(29,87,134)" stroke="rgb(29,87,134)" stroke-width="1" opacity="0.996078431372549" d="M 100.5 224 L 102 224.5 L 102 320 L 99 319.5 L 99 225.5 L 100.5 224 Z " /><path fill="rgb(29,87,134)" stroke="rgb(29,87,134)" stroke-width="1" opacity="0.996078431372549" d="M 408.5 224 L 409 348.5 L 408 348.5 L 408.5 224 Z " /><path fill="rgb(29,87,134)" stroke="rgb(29,87,134)" stroke-width="1" opacity="0.996078431372549" d="M 94.5 240 L 95 271.5 Q 92.3 273.3 94 279.5 L 95 280.5 L 95 308.5 L 94 308.5 L 93 256.5 L 94 255.5 L 94.5 240 Z " /><path fill="rgb(29,87,134)" stroke="rgb(29,87,134)" stroke-width="1" opacity="0.996078431372549" d="M 107.5 240 L 108 263.5 L 107 263.5 L 107.5 240 Z " /><path fill="rgb(29,87,134)" stroke="rgb(29,87,134)" stroke-width="1" opacity="0.996078431372549" d="M 316.5 248 L 317 263.5 L 316 263.5 L 316.5 248 Z " /><path fill="rgb(29,87,134)" stroke="rgb(29,87,134)" stroke-width="1" opacity="0.996078431372549" d="M 186.5 272 L 187 287.5 L 189.5 290 L 191 290.5 L 189.5 291 Q 188 287.5 186.5 290 L 185 289.5 L 187 288.5 L 186 287.5 L 186.5 272 Z " /><path fill="rgb(29,87,134)" stroke="rgb(29,87,134)" stroke-width="1" opacity="0.996078431372549" d="M 188.5 273 L 189 286.5 L 188 286.5 L 188.5 273 Z " /><path fill="rgb(29,87,134)" stroke="rgb(29,87,134)" stroke-width="1" opacity="0.996078431372549" d="M 306.5 288 L 309.5 289 L 311 288.5 L 310.5 290 L 313 290.5 L 309 291 L 308.5 293 L 307.5 291 L 305.5 294 L 305 292.5 L 306 290 L 308 289.5 L 306.5 288 Z " /><path fill="rgb(29,87,134)" stroke="rgb(29,87,134)" stroke-width="1" opacity="0.996078431372549" d="M 303.5 296 L 304.5 298 L 302 297.5 L 303.5 296 Z " /><path fill="rgb(29,87,134)" stroke="rgb(29,87,134)" stroke-width="1" opacity="0.996078431372549" d="M 206.5 297 L 208 299.5 L 207 299.5 L 206.5 297 Z " /><path fill="rgb(29,87,134)" stroke="rgb(29,87,134)" stroke-width="1" opacity="0.996078431372549" d="M 297.5 297 L 300 298.5 L 301 300.5 L 297.5 297 Z " /><path fill="rgb(29,87,134)" stroke="rgb(29,87,134)" stroke-width="1" opacity="0.996078431372549" d="M 296 301 L 298 301.5 L 296 302.5 L 296 301 Z " /><path fill="rgb(29,87,134)" stroke="rgb(29,87,134)" stroke-width="1" opacity="0.996078431372549" d="M 206.5 303 L 207 306.5 L 205 305.5 L 206.5 303 Z " /><path fill="rgb(29,87,134)" stroke="rgb(29,87,134)" stroke-width="1" opacity="0.996078431372549" d="M 292.5 304 L 294.5 305 Q 295.7 302.8 297 305.5 L 294.5 307 L 292.5 305 Q 290.3 310.2 288 306.5 Q 290.2 308.2 292.5 304 Z " /><path fill="rgb(29,87,134)" stroke="rgb(29,87,134)" stroke-width="1" opacity="0.996078431372549" d="M 240.5 305 L 241 318.5 L 240 318.5 L 240.5 305 Z " /><path fill="rgb(29,87,134)" stroke="rgb(29,87,134)" stroke-width="1" opacity="0.996078431372549" d="M 208.5 307 L 207.5 309 L 208.5 307 Z " /><path fill="rgb(29,87,134)" stroke="rgb(29,87,134)" stroke-width="1" opacity="0.996078431372549" d="M 214.5 309 L 215.5 311 Q 212.7 311.7 214.5 309 Z " /><path fill="rgb(29,87,134)" stroke="rgb(29,87,134)" stroke-width="1" opacity="0.996078431372549" d="M 221.5 310 L 222 312 Q 225.7 310.8 224 316 L 220 318.5 L 218.5 321 L 218 318.5 L 219 314 L 222 313.5 L 221.5 310 Z " /><path fill="rgb(29,87,134)" stroke="rgb(29,87,134)" stroke-width="1" opacity="0.996078431372549" d="M 282.5 310 L 283 312 L 281 312.5 L 282 314.5 L 281 314.5 L 280.5 313 L 280 315 Q 277.3 316.1 278 313.5 L 282.5 310 Z " /><path fill="rgb(29,87,134)" stroke="rgb(29,87,134)" stroke-width="1" opacity="0.996078431372549" d="M 94.5 312 L 95.5 328 L 96.5 321 L 97 334.5 L 95 336.5 L 94.5 351 L 94 336.5 Q 96.8 334.7 95 328.5 L 94 327.5 L 94.5 312 Z " /><path fill="rgb(29,87,134)" stroke="rgb(29,87,134)" stroke-width="1" opacity="0.996078431372549" d="M 104.5 312 L 105 322.5 L 104 322.5 L 104.5 312 Z " /><path fill="rgb(29,87,134)" stroke="rgb(29,87,134)" stroke-width="1" opacity="0.996078431372549" d="M 107.5 312 L 108 319.5 L 107 319.5 L 107.5 312 Z " /><path fill="rgb(29,87,134)" stroke="rgb(29,87,134)" stroke-width="1" opacity="0.996078431372549" d="M 214.5 312 L 215.5 314 L 214.5 312 Z " /><path fill="rgb(29,87,134)" stroke="rgb(29,87,134)" stroke-width="1" opacity="0.996078431372549" d="M 284.5 312 Q 288 314 283.5 316 L 283 314.5 L 284.5 312 Z " /><path fill="rgb(29,87,134)" stroke="rgb(29,87,134)" stroke-width="1" opacity="0.996078431372549" d="M 287.5 312 L 290 312.5 Q 287.9 315.8 287.5 312 Z " /><path fill="rgb(29,87,134)" stroke="rgb(29,87,134)" stroke-width="1" opacity="0.996078431372549" d="M 109.5 320 L 110 331.5 L 109 331.5 L 107 326.5 L 108 326.5 L 108.5 328 L 109.5 320 Z " /><path fill="rgb(29,87,134)" stroke="rgb(29,87,134)" stroke-width="1" opacity="0.996078431372549" d="M 222.5 320 L 223.5 322 L 222 321.5 L 223 324.5 L 222.5 326 L 224 326.5 L 222.5 327 Q 219.8 325.8 222 324.5 Q 222.8 322.3 220.5 323 L 222.5 320 Z " /><path fill="rgb(29,87,134)" stroke="rgb(29,87,134)" stroke-width="1" opacity="0.996078431372549" d="M 242.5 320 L 243 327.5 L 242 327.5 L 242.5 320 Z " /><path fill="rgb(29,87,134)" stroke="rgb(29,87,134)" stroke-width="1" opacity="0.996078431372549" d="M 272 320 Q 275 318.8 274 322.5 L 272 323.5 L 272 320 Z " /><path fill="rgb(29,87,134)" stroke="rgb(29,87,134)" stroke-width="1" opacity="0.996078431372549" d="M 281.5 320 L 281.5 323 Q 280.3 320.7 279 323.5 L 277.5 326 L 276 325.5 Q 277.1 328.8 274.5 328 L 273 328.5 Q 276 327.3 275 323 L 277.5 324 L 281.5 320 Z " /><path fill="rgb(29,87,134)" stroke="rgb(29,87,134)" stroke-width="1" opacity="0.996078431372549" d="M 393.5 323 L 396 324 L 395.5 326 L 393.5 323 Z " /><path fill="rgb(29,87,134)" stroke="rgb(29,87,134)" stroke-width="1" opacity="0.996078431372549" d="M 230.5 324 L 234 325 L 235 330 L 231.5 332 L 228 328.5 L 229 327.5 L 230.5 324 Z M 232 328 L 230 330 L 232 331 L 232 328 Z " /><path fill="rgb(29,87,134)" stroke="rgb(29,87,134)" stroke-width="1" opacity="0.996078431372549" d="M 104.5 328 L 105 330.5 L 104 330.5 L 104.5 328 Z " /><path fill="rgb(29,87,134)" stroke="rgb(29,87,134)" stroke-width="1" opacity="0.996078431372549" d="M 240.5 330 L 241 335.5 L 240 335.5 L 240.5 330 Z " /><path fill="rgb(29,87,134)" stroke="rgb(29,87,134)" stroke-width="1" opacity="0.996078431372549" d="M 273.5 330 L 274 331.5 L 272.5 335 L 273 331.5 L 273.5 330 Z " /><path fill="rgb(29,87,134)" stroke="rgb(29,87,134)" stroke-width="1" opacity="0.996078431372549" d="M 398.5 330 L 399 332 L 397 331.5 L 398.5 330 Z " /><path fill="rgb(29,87,134)" stroke="rgb(29,87,134)" stroke-width="1" opacity="0.996078431372549" d="M 229.5 332 L 232 335.5 L 229 333.5 L 229.5 332 Z " /><path fill="rgb(29,87,134)" stroke="rgb(29,87,134)" stroke-width="1" opacity="0.996078431372549" d="M 112.5 333 L 115.5 337 L 112.5 335 L 110 336 Q 108.9 333.3 111.5 334 L 112.5 333 Z " /><path fill="rgb(29,87,134)" stroke="rgb(29,87,134)" stroke-width="1" opacity="0.996078431372549" d="M 360.5 333 L 363 333.5 L 360.5 334 L 360.5 333 Z " /><path fill="rgb(29,87,134)" stroke="rgb(29,87,134)" stroke-width="1" opacity="0.996078431372549" d="M 388.5 333 L 391 333.5 L 390 336 L 387 334.5 L 388.5 333 Z " /><path fill="rgb(29,87,134)" stroke="rgb(29,87,134)" stroke-width="1" opacity="0.996078431372549" d="M 116.5 334 L 117.5 336 L 116.5 334 Z " /><path fill="rgb(29,87,134)" stroke="rgb(29,87,134)" stroke-width="1" opacity="0.996078431372549" d="M 137.5 334 Q 141.3 333 140 336 L 137.5 334 Z " /><path fill="rgb(29,87,134)" stroke="rgb(29,87,134)" stroke-width="1" opacity="0.996078431372549" d="M 237.5 334 L 238 336.5 L 237 336.5 L 237.5 334 Z " /><path fill="rgb(29,87,134)" stroke="rgb(29,87,134)" stroke-width="1" opacity="0.996078431372549" d="M 349.5 334 L 352 335.5 L 350.5 336 L 349.5 334 Z " /><path fill="rgb(29,87,134)" stroke="rgb(29,87,134)" stroke-width="1" opacity="0.996078431372549" d="M 364.5 334 L 368 334.5 L 362.5 336 L 362.5 335 L 364.5 334 Z " /><path fill="rgb(29,87,134)" stroke="rgb(29,87,134)" stroke-width="1" opacity="0.996078431372549" d="M 382.5 334 Q 386.9 332.5 386 335.5 L 383.5 336 L 381 335.5 L 382.5 334 Z " /><path fill="rgb(29,87,134)" stroke="rgb(29,87,134)" stroke-width="1" opacity="0.996078431372549" d="M 128.5 335 L 135 336.5 L 131.5 337 L 129.5 337 L 128.5 335 Z " /><path fill="rgb(29,87,134)" stroke="rgb(29,87,134)" stroke-width="1" opacity="0.996078431372549" d="M 123.5 336 L 127 336.5 L 123.5 337 L 123.5 336 Z " /><path fill="rgb(29,87,134)" stroke="rgb(29,87,134)" stroke-width="1" opacity="0.996078431372549" d="M 269.5 336 L 272 336.5 Q 269.9 339.8 269.5 336 Z " /><path fill="rgb(29,87,134)" stroke="rgb(29,87,134)" stroke-width="1" opacity="0.996078431372549" d="M 233.5 337 L 237 338.5 L 233 339 L 233.5 337 Z " /><path fill="rgb(29,87,134)" stroke="rgb(29,87,134)" stroke-width="1" opacity="0.996078431372549" d="M 327.5 339 L 328.5 342 L 335.5 339 L 335.5 340 L 334 340.5 L 336 341.5 L 334 342.5 L 336 343 L 335.5 345 L 330.5 342 L 329 345 L 325 344.5 L 325.5 343 L 324 342.5 L 327 341.5 Q 324.8 340.3 327.5 339 Z " /><path fill="rgb(29,87,134)" stroke="rgb(29,87,134)" stroke-width="1" opacity="0.996078431372549" d="M 171.5 340 L 173.5 340 L 182 343.5 L 180.5 344 L 178.5 343 L 176 344.5 Q 175.3 342.3 177.5 343 L 177.5 342 Q 171.1 343.3 171.5 340 Z " /><path fill="rgb(29,87,134)" stroke="rgb(29,87,134)" stroke-width="1" opacity="0.996078431372549" d="M 264.5 340 L 267 340.5 L 267 342.5 L 266.5 344 L 264.5 340 Z " /><path fill="rgb(29,87,134)" stroke="rgb(29,87,134)" stroke-width="1" opacity="0.996078431372549" d="M 323.5 340 L 325 340.5 L 322.5 342 L 323.5 340 Z " /><path fill="rgb(29,87,134)" stroke="rgb(29,87,134)" stroke-width="1" opacity="0.996078431372549" d="M 238 341 Q 240.7 339.9 240 342.5 L 241 348 L 239 348.5 L 241 351.5 L 239 352.5 Q 241.3 351.3 238.5 350 L 236 348.5 L 237 346.5 L 236.5 345 Q 237.8 347.3 239 344.5 L 238 341 Z M 239 346 L 237 349 L 239 348 L 239 346 Z " /><path fill="rgb(29,87,134)" stroke="rgb(29,87,134)" stroke-width="1" opacity="0.996078431372549" d="M 169 342 L 172 343.5 L 168.5 345 L 169 343.5 L 169 342 Z " /><path fill="rgb(29,87,134)" stroke="rgb(29,87,134)" stroke-width="1" opacity="0.996078431372549" d="M 264.5 343 L 266 345.5 Q 264.8 348 261 347 Q 259.9 344.3 262.5 345 L 264.5 343 Z " /><path fill="rgb(29,87,134)" stroke="rgb(29,87,134)" stroke-width="1" opacity="0.996078431372549" d="M 317.5 343 L 318 344.5 L 312.5 348 L 310.5 345 L 312.5 346 L 317.5 343 Z " /><path fill="rgb(29,87,134)" stroke="rgb(29,87,134)" stroke-width="1" opacity="0.996078431372549" d="M 145.5 344 L 154.5 345 L 159.5 344 L 162.5 345 L 164 344.5 Q 164.8 347.1 161.5 346 L 161.5 347 L 165 347.5 L 161.5 348 L 158 346.5 L 160 345.5 L 155.5 345 L 152.5 346 Q 151 343.5 145.5 345 L 145.5 344 Z " /><path fill="rgb(29,87,134)" stroke="rgb(29,87,134)" stroke-width="1" opacity="0.996078431372549" d="M 243.5 344 L 244 350.5 L 243 350.5 L 243.5 344 Z " /><path fill="rgb(29,87,134)" stroke="rgb(29,87,134)" stroke-width="1" opacity="0.996078431372549" d="M 330.5 344 L 333 345.5 L 329 347.5 L 329.5 349 L 326 346.5 L 331 345.5 L 330.5 344 Z " /><path fill="rgb(29,87,134)" stroke="rgb(29,87,134)" stroke-width="1" opacity="0.996078431372549" d="M 337.5 344 L 343 344.5 L 337.5 345 L 337.5 344 Z " /><path fill="rgb(29,87,134)" stroke="rgb(29,87,134)" stroke-width="1" opacity="0.996078431372549" d="M 368.5 344 L 369 345.5 Q 365.9 347.2 367.5 349 L 362 345.5 L 363.5 346 L 366.5 347 L 368.5 344 Z " /><path fill="rgb(29,87,134)" stroke="rgb(29,87,134)" stroke-width="1" opacity="0.996078431372549" d="M 123.5 345 L 127 345.5 L 123.5 346 L 123.5 345 Z " /><path fill="rgb(29,87,134)" stroke="rgb(29,87,134)" stroke-width="1" opacity="0.996078431372549" d="M 128.5 345 L 131 345.5 L 128.5 346 L 128.5 345 Z " /><path fill="rgb(29,87,134)" stroke="rgb(29,87,134)" stroke-width="1" opacity="0.996078431372549" d="M 143.5 345 L 147 346.5 L 144.5 347 L 143.5 345 Z " /><path fill="rgb(29,87,134)" stroke="rgb(29,87,134)" stroke-width="1" opacity="0.996078431372549" d="M 180 345 Q 183 344 182 347 Q 179 348 180 345 Z " /><path fill="rgb(29,87,134)" stroke="rgb(29,87,134)" stroke-width="1" opacity="0.996078431372549" d="M 320.5 345 L 323 345.5 L 320.5 346 L 320.5 345 Z " /><path fill="rgb(29,87,134)" stroke="rgb(29,87,134)" stroke-width="1" opacity="0.996078431372549" d="M 344.5 345 L 347 345.5 L 344.5 346 L 344.5 345 Z " /><path fill="rgb(29,87,134)" stroke="rgb(29,87,134)" stroke-width="1" opacity="0.996078431372549" d="M 132.5 346 L 136 346.5 L 132.5 347 L 132.5 346 Z " /><path fill="rgb(29,87,134)" stroke="rgb(29,87,134)" stroke-width="1" opacity="0.996078431372549" d="M 166.5 346 L 170 346.5 L 166.5 347 L 166.5 346 Z " /><path fill="rgb(29,87,134)" stroke="rgb(29,87,134)" stroke-width="1" opacity="0.996078431372549" d="M 376.5 346 L 380 347.5 L 372.5 348 L 372.5 347 L 376.5 346 Z " /><path fill="rgb(29,87,134)" stroke="rgb(29,87,134)" stroke-width="1" opacity="0.996078431372549" d="M 383.5 346 L 392 347.5 L 383.5 349 L 383.5 346 Z " /><path fill="rgb(29,87,134)" stroke="rgb(29,87,134)" stroke-width="1" opacity="0.996078431372549" d="M 120.5 347 L 123 347.5 L 120.5 348 L 120.5 347 Z " /><path fill="rgb(29,87,134)" stroke="rgb(29,87,134)" stroke-width="1" opacity="0.996078431372549" d="M 127 347 L 130 348.5 L 127 349 L 127 347 Z " /><path fill="rgb(29,87,134)" stroke="rgb(29,87,134)" stroke-width="1" opacity="0.996078431372549" d="M 174.5 347 L 179 347.5 L 174.5 348 L 174.5 347 Z " /><path fill="rgb(29,87,134)" stroke="rgb(29,87,134)" stroke-width="1" opacity="0.996078431372549" d="M 189.5 347 L 197 351.5 L 194.5 350 L 193 350.5 L 194 353 L 191 351.5 L 192.5 349 Q 187.4 350.3 189.5 347 Z " /><path fill="rgb(29,87,134)" stroke="rgb(29,87,134)" stroke-width="1" opacity="0.996078431372549" d="M 332.5 347 L 333.5 349 L 331 348.5 L 332.5 347 Z " /><path fill="rgb(29,87,134)" stroke="rgb(29,87,134)" stroke-width="1" opacity="0.996078431372549" d="M 341.5 347 L 344 347.5 L 341.5 348 L 341.5 347 Z " /><path fill="rgb(29,87,134)" stroke="rgb(29,87,134)" stroke-width="1" opacity="0.996078431372549" d="M 345.5 347 L 351 347.5 L 345.5 348 L 345.5 347 Z " /><path fill="rgb(29,87,134)" stroke="rgb(29,87,134)" stroke-width="1" opacity="0.996078431372549" d="M 361.5 347 L 362.5 349 L 361.5 347 Z " /><path fill="rgb(29,87,134)" stroke="rgb(29,87,134)" stroke-width="1" opacity="0.996078431372549" d="M 260 348 L 262 348.5 L 259 357.5 L 259.5 359 L 257 358 L 257.5 356 L 259 356.5 L 260 348 Z " /><path fill="rgb(29,87,134)" stroke="rgb(29,87,134)" stroke-width="1" opacity="0.996078431372549" d="M 306.5 348 L 309.5 349 L 311 348.5 L 305.5 352 L 304.5 350 L 302.5 350 L 300.5 351 L 301.5 349 L 303.5 350 L 305.5 350 L 307 349.5 L 306.5 348 Z " /><path fill="rgb(29,87,134)" stroke="rgb(29,87,134)" stroke-width="1" opacity="0.996078431372549" d="M 122.5 349 L 125 349.5 L 120.5 351 L 120.5 350 L 122.5 349 Z " /><path fill="rgb(29,87,134)" stroke="rgb(29,87,134)" stroke-width="1" opacity="0.996078431372549" d="M 313.5 350 L 316 350.5 L 313.5 351 L 313.5 350 Z " /><path fill="rgb(29,87,134)" stroke="rgb(29,87,134)" stroke-width="1" opacity="0.996078431372549" d="M 201.5 351 Q 204.5 352.5 201.5 354 L 199 353.5 L 201 353 L 201.5 351 Z " /><path fill="rgb(29,87,134)" stroke="rgb(29,87,134)" stroke-width="1" opacity="0.996078431372549" d="M 93.5 352 L 92.5 354 L 93.5 352 Z " /><path fill="rgb(29,87,134)" stroke="rgb(29,87,134)" stroke-width="1" opacity="0.996078431372549" d="M 101.5 352 L 102.5 354 L 100 353.5 L 101.5 352 Z " /><path fill="rgb(29,87,134)" stroke="rgb(29,87,134)" stroke-width="1" opacity="0.996078431372549" d="M 104.5 352 L 106.5 352 L 108 352.5 L 104.5 355 L 104.5 352 Z " /><path fill="rgb(29,87,134)" stroke="rgb(29,87,134)" stroke-width="1" opacity="0.996078431372549" d="M 242.5 352 L 244 357.5 L 243 357.5 L 242.5 352 Z " /><path fill="rgb(29,87,134)" stroke="rgb(29,87,134)" stroke-width="1" opacity="0.996078431372549" d="M 296.5 352 L 299.5 353 L 301 352.5 L 296.5 355 L 296.5 354 L 298 353.5 L 296.5 352 Z " /><path fill="rgb(29,87,134)" stroke="rgb(29,87,134)" stroke-width="1" opacity="0.996078431372549" d="M 401.5 352 L 403.5 353 L 405.5 353 L 410 354.5 L 407.5 357 Q 405.8 353.9 404 355.5 L 404.5 354 L 401.5 355 Q 398.5 353.5 401.5 352 Z " /><path fill="rgb(29,87,134)" stroke="rgb(29,87,134)" stroke-width="1" opacity="0.996078431372549" d="M 97.5 353 L 99 353.5 L 95.5 355 L 95.5 354 L 97.5 353 Z " /><path fill="rgb(29,87,134)" stroke="rgb(29,87,134)" stroke-width="1" opacity="0.996078431372549" d="M 207.5 355 L 209 355.5 L 206.5 357 L 207.5 355 Z " /><path fill="rgb(27,58,85)" stroke="rgb(27,58,85)" stroke-width="1" opacity="0.5843137254901961" d="M 182 126 Q 214.7 137 235 161.5 L 243 175.5 L 247 191.5 L 247 369.5 L 246.5 372 Q 244.3 372.8 245 370.5 L 230 340.5 L 220 325.5 L 208 311 L 206 311 L 206 309 Q 203.3 310.1 204 307.5 L 182 289.5 L 182 126 Z M 183 128 L 183 289 L 195 297 Q 212 312 226 332 L 234 347 L 237 350 L 244 367 L 245 367 L 245 189 Q 242 172 233 162 L 215 144 Q 200 134 183 128 Z " /><path fill="rgb(27,58,85)" stroke="rgb(27,58,85)" stroke-width="1" opacity="0.5843137254901961" d="M 317.5 126 Q 320.3 125.4 319 131.5 L 320 134.5 L 320 150.5 L 319 151.5 L 319 289.5 L 317.5 291 Q 299.7 302.2 287 318.5 L 285 321.5 Q 266.8 342.1 257 370 Q 254.3 371.1 255 368.5 L 254 367.5 L 254 193.5 L 255 192.5 L 256 181.5 L 262 167.5 Q 270 155 281.5 146 Q 297.3 133.8 317.5 126 Z M 316 128 Q 297 136 283 148 L 280 150 Q 262 163 256 189 L 257 367 L 269 341 L 284 320 L 293 311 Q 292 308 295 309 L 296 307 L 318 288 L 318 129 L 316 128 Z " /><path fill="rgb(27,58,85)" stroke="rgb(27,58,85)" stroke-width="1" opacity="0.5843137254901961" d="M 124.5 152 L 124 153.5 L 122.5 156 L 123 154.5 L 124.5 152 Z " /><path fill="rgb(27,58,85)" stroke="rgb(27,58,85)" stroke-width="1" opacity="0.5843137254901961" d="M 376.5 153 Q 378.8 152.3 378 154.5 L 378.5 156 L 376.5 153 Z " /><path fill="rgb(27,58,85)" stroke="rgb(27,58,85)" stroke-width="1" opacity="0.5843137254901961" d="M 171.5 173 L 172 178.5 L 171 178.5 L 171.5 173 Z " /><path fill="rgb(27,58,85)" stroke="rgb(27,58,85)" stroke-width="1" opacity="0.5843137254901961" d="M 109.5 202 L 113 203.5 L 113 330.5 L 113.5 331 L 143.5 331 L 170.5 336 L 195.5 345 L 215.5 356 L 226 364.5 L 224.5 364 L 202.5 357 L 177.5 352 L 169.5 352 L 168.5 351 L 136.5 351 L 135.5 352 L 126.5 352 L 109.5 356 L 104.5 356 L 89.5 361 L 88 359.5 L 88 211.5 L 89 209 L 109.5 202 Z M 108 204 L 92 210 L 90 212 L 90 359 L 118 352 L 131 351 L 132 350 L 149 350 L 150 349 L 173 350 L 174 351 L 187 352 L 208 357 L 215 360 L 217 360 L 207 352 L 190 344 L 162 335 L 151 334 L 150 333 L 141 333 L 140 332 L 112 332 L 111 330 Q 109 323 112 322 L 112 310 L 111 309 L 111 213 L 112 212 Q 113 207 111 206 Q 112 203 108 204 Z " /><path fill="rgb(27,58,85)" stroke="rgb(27,58,85)" stroke-width="1" opacity="0.5843137254901961" d="M 389.5 202 L 412 209 L 413 211.5 L 413 359.5 L 410.5 361 L 403.5 358 L 381.5 353 L 374.5 353 L 365.5 351 L 332.5 351 L 331.5 352 L 323.5 352 L 306.5 355 L 275.5 365 L 278.5 361 Q 300.5 344.5 330.5 336 L 357.5 331 L 388 331 L 388 203.5 L 389.5 202 Z M 391 204 L 389 206 L 389 325 L 390 328 L 390 330 L 388 332 L 360 332 L 341 336 L 336 336 L 322 340 L 303 348 L 287 357 L 285 360 L 315 352 L 328 351 L 329 350 L 344 350 L 345 349 L 347 350 L 351 349 L 385 352 L 402 356 L 409 359 L 411 359 L 411 212 L 398 205 L 391 204 Z " /><path fill="rgb(27,58,85)" stroke="rgb(27,58,85)" stroke-width="1" opacity="0.5843137254901961" d="M 171.5 208 L 172 210.5 L 171 210.5 L 171.5 208 Z " /><path fill="rgb(27,58,85)" stroke="rgb(27,58,85)" stroke-width="1" opacity="0.5843137254901961" d="M 123.5 222 L 124 227.5 L 123 227.5 L 123.5 222 Z " /><path fill="rgb(27,58,85)" stroke="rgb(27,58,85)" stroke-width="1" opacity="0.5843137254901961" d="M 171.5 229 L 172 233.5 L 171 233.5 L 171.5 229 Z " /><path fill="rgb(27,58,85)" stroke="rgb(27,58,85)" stroke-width="1" opacity="0.5843137254901961" d="M 276.5 358 L 275.5 360 L 276.5 358 Z " /><path fill="rgb(27,58,85)" stroke="rgb(27,58,85)" stroke-width="1" opacity="0.5843137254901961" d="M 265.5 361 L 266 362.5 L 264 367 L 266 367.5 L 262.5 369 L 263 367.5 L 265.5 361 Z " /><path fill="rgb(27,58,85)" stroke="rgb(27,58,85)" stroke-width="1" opacity="0.5843137254901961" d="M 236.5 363 L 238 365.5 L 236 364.5 L 236.5 363 Z " /><path fill="rgb(27,58,85)" stroke="rgb(27,58,85)" stroke-width="1" opacity="0.5843137254901961" d="M 233.5 365 L 235.5 368 L 233.5 365 Z " /><path fill="rgb(27,58,85)" stroke="rgb(27,58,85)" stroke-width="1" opacity="0.5843137254901961" d="M 238.5 367 L 239 369 L 237 368.5 L 238.5 367 Z " /><path fill="rgb(237,128,35)" stroke="rgb(237,128,35)" stroke-width="1" opacity="0.9490196078431372" d="M 125.5 152 L 128.5 153 L 143.5 153 L 160.5 156 L 167.5 158 L 172 161.5 L 171 178.5 L 172 179.5 L 172 207.5 L 171 208.5 L 171 233.5 L 172 234.5 L 172 284.5 L 172 286.5 L 172 297.5 L 174.5 300 L 187.5 308 L 209 326.5 Q 208.3 328.8 210.5 328 L 229 349.5 L 237.5 366 L 239 366.5 L 236.5 368 L 223 358 Q 224.1 355.3 221.5 356 Q 204.9 342.1 183.5 333 L 157.5 324 L 135.5 320 L 133.5 320 L 124.5 320 L 123 318.5 L 123 314.5 L 123 228.5 Q 125.3 227.3 124 222.5 L 123 221.5 L 123 158.5 L 122 156.5 L 125.5 152 Z " /><path fill="rgb(237,128,35)" stroke="rgb(237,128,35)" stroke-width="1" opacity="0.9490196078431372" d="M 371.5 152 L 374.5 153 L 376 152.5 L 378 155.5 L 378 318.5 L 376.5 320 L 368.5 320 L 367.5 321 L 359.5 321 L 348.5 323 L 327.5 329 L 301.5 341 L 281 354 Q 282.1 356.7 279.5 356 L 266.5 367 L 264 367 L 271 351.5 L 291.5 327 L 308.5 312 L 329 298.5 L 330 296.5 L 330 160.5 L 331.5 159 L 340.5 156 L 342.5 156 L 359.5 153 L 370.5 153 L 371.5 152 Z " /><path fill="rgb(31,84,123)" stroke="rgb(31,84,123)" stroke-width="1" opacity="0.996078431372549" d="M 183 128 L 185.5 128 L 201 136.5 L 199.5 139 L 197 135 L 191.5 133 L 188.5 135 L 188 133 L 184 131 L 184 141.5 L 185 142.5 L 184 143.5 L 184 271.5 L 185 272.5 L 185 287.5 L 186 288.5 L 185.5 291 L 183 288.5 L 183 128 Z " /><path fill="rgb(31,84,123)" stroke="rgb(31,84,123)" stroke-width="1" opacity="0.996078431372549" d="M 315.5 128 L 318 128.5 L 318 287.5 L 316 288.5 L 316 273.5 L 317 272.5 L 317 159.5 L 317 157.5 L 316 154.5 L 316 152.5 L 317 132.5 L 314 130.5 Q 315.3 134.7 310.5 133 L 308.5 133 L 307 132.5 L 315.5 128 Z " /><path fill="rgb(31,84,123)" stroke="rgb(31,84,123)" stroke-width="1" opacity="0.996078431372549" d="M 305.5 133 L 306 134.5 L 306 136.5 Q 307 141 304.5 142 L 304 137 Q 300.2 136 299 138.5 Q 299.8 140.8 297.5 140 Q 296.3 142.3 295 139.5 L 305.5 133 Z " /><path fill="rgb(31,84,123)" stroke="rgb(31,84,123)" stroke-width="1" opacity="0.996078431372549" d="M 310 137 L 313 138.5 L 314 141.5 Q 310.6 144.6 311.5 152 L 310 137 Z " /><path fill="rgb(31,84,123)" stroke="rgb(31,84,123)" stroke-width="1" opacity="0.996078431372549" d="M 204.5 138 L 211 142.5 L 211.5 144 L 213.5 144 Q 225.1 150.9 233 161.5 L 239 170.5 L 245 188.5 L 245 366.5 L 244 366.5 L 239 353.5 L 237 351.5 L 239 351 L 239.5 353 L 241 352.5 L 240 355.5 L 242.5 360 L 244 358.5 L 244 208.5 L 243 207.5 Q 244.7 199.3 242 195.5 L 243 190.5 Q 240.3 188.8 242 182.5 L 240 180.5 L 239 173.5 L 237.5 172 L 235 173 L 236 170.5 L 234 167.5 Q 236.8 165.8 232.5 164 L 228 160.5 L 224.5 155 L 223 155.5 L 221.5 153 L 220 152.5 L 220.5 151 L 218 150.5 L 218.5 149 L 216.5 150 Q 213.3 148.8 214 145 Q 209.1 145.1 207 141.5 Q 207.9 138.5 203.5 140 L 204.5 138 Z " /><path fill="rgb(31,84,123)" stroke="rgb(31,84,123)" stroke-width="1" opacity="0.996078431372549" d="M 293.5 140 L 294.5 142 L 292 141.5 L 293.5 140 Z " /><path fill="rgb(31,84,123)" stroke="rgb(31,84,123)" stroke-width="1" opacity="0.996078431372549" d="M 187 142 L 190 143.5 L 189 144.5 L 188.5 159 L 188 144.5 L 187 142 Z " /><path fill="rgb(31,84,123)" stroke="rgb(31,84,123)" stroke-width="1" opacity="0.996078431372549" d="M 302.5 142 L 306 145.5 L 306 289.5 L 303 289.5 L 304 287.5 L 304 144 Q 300.8 145 302.5 142 Z " /><path fill="rgb(31,84,123)" stroke="rgb(31,84,123)" stroke-width="1" opacity="0.996078431372549" d="M 288.5 143 L 290 143.5 L 287.5 145 L 288.5 143 Z " /><path fill="rgb(31,84,123)" stroke="rgb(31,84,123)" stroke-width="1" opacity="0.996078431372549" d="M 284 146 Q 287.7 144.8 286 150 Q 280.4 150.1 278 154.5 L 275.5 158 L 274 155.5 L 279.5 150 L 281 150.5 L 281 148 Q 285.1 149.3 284 146 Z " /><path fill="rgb(31,84,123)" stroke="rgb(31,84,123)" stroke-width="1" opacity="0.996078431372549" d="M 272.5 157 L 273 159.5 L 271 163 L 269 163.5 L 270 165.5 L 261 176.5 L 261 179.5 Q 263.3 180.8 260.5 182 L 259 182.5 L 260 185.5 L 257 192.5 L 257 339.5 Q 260.3 340.8 259 346.5 L 256.5 350 L 256 188.5 Q 260.3 168.8 272.5 157 Z " /><path fill="rgb(31,84,123)" stroke="rgb(31,84,123)" stroke-width="1" opacity="0.996078431372549" d="M 311.5 160 Q 314 161 313 165.5 L 312 166.5 L 312 175.5 L 313 176.5 L 313 191.5 L 312 192.5 L 312 223.5 Q 314.8 225.3 313 231.5 Q 310.2 233.2 312 239.5 L 313 240.5 L 313 271.5 L 312 272.5 L 311.5 287 L 311.5 160 Z " /><path fill="rgb(31,84,123)" stroke="rgb(31,84,123)" stroke-width="1" opacity="0.996078431372549" d="M 224.5 165 Q 227 166.2 226 170 Q 221.9 171.2 224.5 165 Z " /><path fill="rgb(31,84,123)" stroke="rgb(31,84,123)" stroke-width="1" opacity="0.996078431372549" d="M 267 182 Q 271.1 180.3 270 184.5 L 266.5 190 L 266 184.5 L 267 182 Z " /><path fill="rgb(31,84,123)" stroke="rgb(31,84,123)" stroke-width="1" opacity="0.996078431372549" d="M 188.5 193 L 189 208.5 L 188 208.5 L 188.5 193 Z " /><path fill="rgb(31,84,123)" stroke="rgb(31,84,123)" stroke-width="1" opacity="0.996078431372549" d="M 107.5 204 Q 112.3 202.7 111 206 L 108.5 205 L 104 206.5 L 104.5 208 L 102.5 208 L 95 210 Q 93.8 207 97.5 208 L 107.5 204 Z " /><path fill="rgb(31,84,123)" stroke="rgb(31,84,123)" stroke-width="1" opacity="0.996078431372549" d="M 390.5 204 L 394 204.5 L 392 206.5 L 392 319.5 L 391 321.5 Q 393.7 323.8 393 329.5 L 390.5 333 L 387.5 334 L 368.5 334 Q 366.8 331.3 360.5 333 L 360.5 334 L 362 334.5 L 361.5 336 L 366.5 335 L 367 337 L 351.5 338 L 337.5 338 L 330.5 339 L 330.5 338 L 335.5 336 L 341.5 336 L 348.5 334 L 350.5 334 L 359.5 332 L 387.5 332 L 390 329.5 L 390 327.5 L 389 324.5 L 389 205.5 L 390.5 204 Z " /><path fill="rgb(31,84,123)" stroke="rgb(31,84,123)" stroke-width="1" opacity="0.996078431372549" d="M 395.5 205 Q 405 206.5 411 211.5 L 410.5 354 L 409 351.5 L 409 221.5 L 410 218.5 L 409 216.5 L 410 214.5 L 404 212.5 L 403 209 Q 395.8 210.2 395.5 205 Z " /><path fill="rgb(31,84,123)" stroke="rgb(31,84,123)" stroke-width="1" opacity="0.996078431372549" d="M 110.5 208 L 111 319.5 L 110 319.5 L 110.5 208 Z " /><path fill="rgb(31,84,123)" stroke="rgb(31,84,123)" stroke-width="1" opacity="0.996078431372549" d="M 93.5 209 L 93 210.5 Q 90.7 213.7 92 220.5 L 93 223.5 L 92 224.5 L 92 286.5 L 93 287.5 L 93 351.5 L 92 354.5 Q 94.3 359.3 96.5 355 L 100.5 354 L 101.5 355 L 104 353.5 Q 104.8 355.8 102.5 355 L 98.5 357 L 90 359 L 90 215.5 L 91 214.5 L 90 211.5 L 91.5 210 L 93.5 209 Z " /><path fill="rgb(31,84,123)" stroke="rgb(31,84,123)" stroke-width="1" opacity="0.996078431372549" d="M 108.5 209 L 109 223.5 L 108 223.5 L 108.5 209 Z " /><path fill="rgb(31,84,123)" stroke="rgb(31,84,123)" stroke-width="1" opacity="0.996078431372549" d="M 191.5 290 L 193.5 294 L 198 297.5 L 198.5 299 Q 200.2 296.2 202 300.5 Q 200.9 303.8 203.5 303 L 203.5 304 L 200 302.5 Q 200.8 300.3 198.5 301 L 187 291.5 L 188.5 291 L 191 292 L 191.5 290 Z " /><path fill="rgb(31,84,123)" stroke="rgb(31,84,123)" stroke-width="1" opacity="0.996078431372549" d="M 313.5 290 L 315 290.5 L 301 301 L 299.5 304 L 297.5 305 L 297 302.5 L 298 300 Q 300.7 301.1 300 298.5 L 305 297.5 Q 304.3 294.9 307 296 L 307 293.5 L 309 293.5 Q 308.3 291.3 310.5 292 L 313.5 290 Z " /><path fill="rgb(31,84,123)" stroke="rgb(31,84,123)" stroke-width="1" opacity="0.996078431372549" d="M 289.5 295 L 290 298.5 L 288 297.5 L 289.5 295 Z " /><path fill="rgb(31,84,123)" stroke="rgb(31,84,123)" stroke-width="1" opacity="0.996078431372549" d="M 288 304 L 290 304.5 L 288 305.5 L 288 304 Z " /><path fill="rgb(31,84,123)" stroke="rgb(31,84,123)" stroke-width="1" opacity="0.996078431372549" d="M 203.5 305 L 206 306.5 L 206.5 308 L 208.5 308 L 214 311.5 L 216 314.5 L 215 316.5 L 218 317.5 Q 216.5 321.9 219.5 321 L 221.5 320 L 219.5 323 L 203.5 305 Z " /><path fill="rgb(31,84,123)" stroke="rgb(31,84,123)" stroke-width="1" opacity="0.996078431372549" d="M 293 307 L 296 307.5 L 293 309 L 290.5 313 L 290 311.5 L 293 307 Z " /><path fill="rgb(31,84,123)" stroke="rgb(31,84,123)" stroke-width="1" opacity="0.996078431372549" d="M 286 313 L 289 314.5 L 282.5 322 L 281 322.5 L 282 323.5 L 279 326.5 L 274.5 333 L 273 332.5 L 275.5 328 L 278 326.5 L 282 319.5 L 281.5 318 L 283 318.5 L 284.5 315 L 286 315.5 L 286 313 Z " /><path fill="rgb(31,84,123)" stroke="rgb(31,84,123)" stroke-width="1" opacity="0.996078431372549" d="M 223.5 327 L 225.5 330 L 229 329 L 230 337 Q 232.7 335.9 232 338.5 L 235.5 340 L 237.5 339 L 238 343 L 235 344.5 L 236 347 Q 233 348.3 234 344.5 L 223 328.5 L 223.5 327 Z " /><path fill="rgb(31,84,123)" stroke="rgb(31,84,123)" stroke-width="1" opacity="0.996078431372549" d="M 113 332 L 139.5 332 L 144 333.5 L 119.5 334 L 117.5 335 L 113 334 L 113 332 Z " /><path fill="rgb(31,84,123)" stroke="rgb(31,84,123)" stroke-width="1" opacity="0.996078431372549" d="M 145 333 Q 148.4 332.3 149.5 335 L 153.5 334 L 153.5 335 L 149.5 336 Q 148 333.5 146.5 337 L 145 336.5 L 145 334.5 L 145 333 Z " /><path fill="rgb(31,84,123)" stroke="rgb(31,84,123)" stroke-width="1" opacity="0.996078431372549" d="M 238 333 Q 241.3 331.9 240 336 Q 236.7 337.1 238 333 Z " /><path fill="rgb(31,84,123)" stroke="rgb(31,84,123)" stroke-width="1" opacity="0.996078431372549" d="M 159.5 335 L 172 338.5 L 169.5 339 L 166.5 338 L 159 337 L 159.5 335 Z " /><path fill="rgb(31,84,123)" stroke="rgb(31,84,123)" stroke-width="1" opacity="0.996078431372549" d="M 265.5 336 L 267.5 337 Q 269.3 334.2 271 338.5 L 262.5 353 L 261 350.5 L 263.5 347 L 266 345.5 L 265.5 344 Q 267.8 344.8 267 342.5 L 266 339.5 L 265.5 336 Z " /><path fill="rgb(31,84,123)" stroke="rgb(31,84,123)" stroke-width="1" opacity="0.996078431372549" d="M 175.5 339 L 194 346.5 L 191.5 347 L 183.5 345 L 176.5 341 L 175.5 339 Z " /><path fill="rgb(31,84,123)" stroke="rgb(31,84,123)" stroke-width="1" opacity="0.996078431372549" d="M 129.5 341 L 132 341.5 L 129.5 342 L 129.5 341 Z " /><path fill="rgb(31,84,123)" stroke="rgb(31,84,123)" stroke-width="1" opacity="0.996078431372549" d="M 319.5 341 L 321 341.5 L 305.5 349 L 305 347 L 309.5 345 Q 311 347.5 312.5 344 L 319.5 341 Z " /><path fill="rgb(31,84,123)" stroke="rgb(31,84,123)" stroke-width="1" opacity="0.996078431372549" d="M 145 342 L 164.5 342 L 166 343.5 L 161.5 345 L 160.5 344 L 145 344 L 145 342 Z " /><path fill="rgb(31,84,123)" stroke="rgb(31,84,123)" stroke-width="1" opacity="0.996078431372549" d="M 360.5 342 L 368 342 L 368 345 L 363.5 346 L 359.5 345 L 357.5 345 L 355 343.5 L 360.5 342 Z " /><path fill="rgb(31,84,123)" stroke="rgb(31,84,123)" stroke-width="1" opacity="0.996078431372549" d="M 336.5 343 L 352 343.5 L 336.5 344 L 336.5 343 Z " /><path fill="rgb(31,84,123)" stroke="rgb(31,84,123)" stroke-width="1" opacity="0.996078431372549" d="M 171.5 344 L 176 344.5 L 175.5 347 L 169 345.5 L 171.5 344 Z " /><path fill="rgb(31,84,123)" stroke="rgb(31,84,123)" stroke-width="1" opacity="0.996078431372549" d="M 321.5 344 L 324 344.5 L 321.5 345 L 321.5 344 Z " /><path fill="rgb(31,84,123)" stroke="rgb(31,84,123)" stroke-width="1" opacity="0.996078431372549" d="M 135.5 347 L 137.5 347 L 140.5 348 L 144.5 348 L 167.5 348 L 170.5 349 L 174.5 348 L 176.5 348 L 179.5 350 L 180 348 Q 185.4 348.3 188.5 352 L 190.5 351 L 191.5 353 L 181.5 352 L 176.5 350 L 173.5 351 L 172.5 350 L 146.5 349 L 145.5 350 L 124.5 351 L 124.5 350 Q 131.5 350 135.5 347 Z " /><path fill="rgb(31,84,123)" stroke="rgb(31,84,123)" stroke-width="1" opacity="0.996078431372549" d="M 195.5 347 L 199 348 L 199.5 351 L 201.5 350 L 206 352.5 L 204.5 352 L 200.5 351 L 199 354 L 205.5 355 Q 207.5 351 209.5 355 L 213 356 L 213.5 358 L 214.5 357 L 217.5 360 L 219 360.5 L 217.5 361 L 205.5 356 L 203.5 356 L 200.5 356 L 194.5 353 L 193 353.5 Q 196.5 353 196 348.5 L 195.5 347 Z " /><path fill="rgb(31,84,123)" stroke="rgb(31,84,123)" stroke-width="1" opacity="0.996078431372549" d="M 369.5 347 L 378 348.5 L 377.5 350 L 382.5 349 L 384.5 351 L 389.5 351 L 395.5 354 L 400.5 354 L 401.5 353 L 404.5 356 L 409 357 Q 408 354 411 355 Q 413.1 360.2 408.5 359 L 394.5 354 L 366 349.5 L 369 349 L 369.5 347 Z M 374 349 L 374 350 L 376 350 L 374 349 Z " /><path fill="rgb(31,84,123)" stroke="rgb(31,84,123)" stroke-width="1" opacity="0.996078431372549" d="M 317 348 L 323.5 350 L 328.5 349 L 327.5 351 L 320 350 Q 321.4 353.7 315.5 352 L 317 349.5 L 317 348 Z " /><path fill="rgb(31,84,123)" stroke="rgb(31,84,123)" stroke-width="1" opacity="0.996078431372549" d="M 335 348 L 361.5 348 L 365 349.5 L 355.5 350 L 350.5 349 L 346.5 350 L 344.5 349 L 343.5 350 L 335 350 L 335 348 Z " /><path fill="rgb(31,84,123)" stroke="rgb(31,84,123)" stroke-width="1" opacity="0.996078431372549" d="M 330.5 349 L 334 349.5 L 330.5 350 L 330.5 349 Z " /><path fill="rgb(31,84,123)" stroke="rgb(31,84,123)" stroke-width="1" opacity="0.996078431372549" d="M 113.5 351 L 123 351.5 L 105.5 355 L 106.5 353 L 113.5 351 Z " /><path fill="rgb(31,84,123)" stroke="rgb(31,84,123)" stroke-width="1" opacity="0.996078431372549" d="M 256.5 351 Q 258.8 351.8 258 355.5 L 256.5 358 L 256.5 351 Z " /><path fill="rgb(31,84,123)" stroke="rgb(31,84,123)" stroke-width="1" opacity="0.996078431372549" d="M 296.5 351 L 301 351.5 L 295.5 353 L 296.5 351 Z " /><path fill="rgb(31,84,123)" stroke="rgb(31,84,123)" stroke-width="1" opacity="0.996078431372549" d="M 302 351 L 305.5 353 L 308.5 351 L 310.5 352 L 312.5 352 L 314 352.5 L 294.5 357 L 293 356.5 Q 293.8 359.1 290.5 358 L 289 358.5 L 288.5 357 L 286.5 360 L 282.5 361 L 282.5 360 L 293.5 353 Q 294.3 355.8 298.5 355 L 302 353 L 302 351 Z " /><path fill="rgb(31,84,123)" stroke="rgb(31,84,123)" stroke-width="1" opacity="0.996078431372549" d="M 261.5 354 L 261 355.5 Q 262.1 358.8 259.5 358 L 260 356.5 L 261.5 354 Z " /><path fill="rgb(31,84,123)" stroke="rgb(31,84,123)" stroke-width="1" opacity="0.996078431372549" d="M 258.5 359 L 260 359.5 L 256.5 366 L 256 360 L 258.5 359 Z " /></svg>